<?xml version="1.0" encoding="UTF-8"?>
<svg height="16px" viewBox="0 0 16 16" width="16px" xmlns="http://www.w3.org/2000/svg">
    <path d="m 5 0 c -1.644531 0 -3 1.355469 -3 3 v 3 h 2 v -3 c 0 -0.570312 0.429688 -1 1 -1 h 2 c 0.570312 0 1 0.429688 1 1 v 0.25 c 0.265625 -0.148438 0.558594 -0.25 0.875 -0.25 h 1.125 c 0 -1.644531 -1.355469 -3 -3 -3 z m 3.875 4 c -0.234375 -0.003906 -0.457031 0.085938 -0.621094 0.253906 c -0.167968 0.164063 -0.257812 0.386719 -0.253906 0.621094 v 6.25 c 0 0.492188 0.382812 0.875 0.875 0.875 h 6.25 c 0.234375 0.003906 0.457031 -0.085938 0.621094 -0.253906 c 0.167968 -0.164063 0.257812 -0.386719 0.253906 -0.621094 v -6.25 c 0.003906 -0.234375 -0.085938 -0.457031 -0.253906 -0.621094 c -0.164063 -0.167968 -0.386719 -0.257812 -0.621094 -0.253906 z m 2.125 1 h 2 v 2.5 s 0 0.5 -0.5 0.5 h -1 c -0.5 0 -0.5 -0.5 -0.5 -0.5 z m -9 4 s -1 0 -1 1 v 5 h 10 v -2 h -2.125 c -1.011719 0 -1.875 -0.863281 -1.875 -1.875 v -2.125 z m 9.5 0 h 1 c 0.277344 0 0.5 0.222656 0.5 0.5 v 1 c 0 0.277344 -0.222656 0.5 -0.5 0.5 h -1 c -0.132812 0 -0.261719 -0.050781 -0.355469 -0.144531 s -0.144531 -0.222657 -0.144531 -0.355469 v -1 c 0 -0.277344 0.222656 -0.5 0.5 -0.5 z m 0 0" fill="#cc0000"/>
</svg>
