<?xml version="1.0" encoding="UTF-8"?>
<svg height="16px" viewBox="0 0 16 16" width="16px" xmlns="http://www.w3.org/2000/svg">
    <path d="m 4 1 c -1.660156 0 -3 1.339844 -3 3 v 6 c 0 1.660156 1.339844 3 3 3 h 8 c 1.660156 0 3 -1.339844 3 -3 v -6 c 0 -1.660156 -1.339844 -3 -3 -3 z m 2 3 c 0.558594 0 1.03125 0.472656 1.03125 1.03125 v 0.96875 c 0 0.558594 -0.472656 1 -1.03125 1 s -1 -0.441406 -1 -1 v -0.96875 c 0 -0.558594 0.441406 -1.03125 1 -1.03125 z m 4 0 c 0.558594 0 1 0.472656 1 1.03125 v 0.96875 c 0 0.558594 -0.441406 1 -1 1 s -1 -0.441406 -1 -1 v -0.96875 c 0 -0.558594 0.441406 -1.03125 1 -1.03125 z m -2 4.03125 c 3.257812 0 5 0.875 5 1.40625 v 0.5 c -0.996094 -0.636719 -4.015625 -0.90625 -5 -0.90625 s -3.804688 -0.0625 -5 0.90625 v -0.5 c 0 -0.679688 1.742188 -1.40625 5 -1.40625 z m 0 5.96875 c -5 0 -5 1 -5 1 c 0 1 1 1 1 1 h 8 c 1 0 1 -1 1 -1 s 0 -1 -5 -1 z m 0 0" fill="#222222"/>
</svg>
