<?xml version="1.0" encoding="UTF-8"?>
<svg height="16px" viewBox="0 0 16 16" width="16px" xmlns="http://www.w3.org/2000/svg">
    <path d="m 11.769531 1.1875 c -0.03125 0 -0.0625 0.003906 -0.097656 0.015625 l -0.96875 0.257813 c -0.265625 0.070312 -0.421875 0.34375 -0.351563 0.609374 l 3.367188 12.558594 c 0.070312 0.265625 0.34375 0.425782 0.609375 0.355469 l 0.96875 -0.261719 c 0.265625 -0.070312 0.421875 -0.34375 0.351563 -0.613281 l -3.367188 -12.554687 c -0.0625 -0.234376 -0.277344 -0.382813 -0.511719 -0.367188 z m -10.269531 0.8125 c -0.277344 0 -0.5 0.222656 -0.5 0.5 v 12 c 0 0.277344 0.222656 0.5 0.5 0.5 h 2 c 0.277344 0 0.5 -0.222656 0.5 -0.5 v -12 c 0 -0.277344 -0.222656 -0.5 -0.5 -0.5 z m 7 1 c -0.277344 0 -0.5 0.222656 -0.5 0.5 v 11 c 0 0.277344 0.222656 0.5 0.5 0.5 h 1 c 0.277344 0 0.5 -0.222656 0.5 -0.5 v -11 c 0 -0.277344 -0.222656 -0.5 -0.5 -0.5 z m -3 1 c -0.277344 0 -0.5 0.222656 -0.5 0.5 v 10 c 0 0.277344 0.222656 0.5 0.5 0.5 h 1 c 0.277344 0 0.5 -0.222656 0.5 -0.5 v -10 c 0 -0.277344 -0.222656 -0.5 -0.5 -0.5 z m 0 0" fill="#222222"/>
</svg>
