<svg height="16" width="16" xmlns="http://www.w3.org/2000/svg"><path d="M7.5 0C3.37 0 0 3.37 0 7.5S3.37 15 7.5 15 15 11.63 15 7.5 11.63 0 7.5 0zm0 2c.183 0 .382.084.617.322.235.239.48.626.69 1.127.373.897.632 2.151.683 3.551H5.51c.05-1.4.31-2.654.683-3.55.21-.502.455-.889.69-1.128C7.118 2.084 7.317 2 7.5 2zm-1.857.318a5.85 5.85 0 0 0-.372.746c-.439 1.054-.71 2.422-.76 3.936H2.024a5.481 5.481 0 0 1 3.62-4.682zm3.714 0A5.481 5.481 0 0 1 12.977 7h-2.489c-.05-1.514-.32-2.882-.76-3.936a5.85 5.85 0 0 0-.37-.746zM2.023 8h2.489c.05 1.514.32 2.882.76 3.936.112.27.235.519.37.746A5.481 5.481 0 0 1 2.024 8zM5.51 8h3.98c-.05 1.4-.31 2.654-.683 3.55-.21.502-.455.889-.69 1.128-.235.238-.434.322-.617.322s-.382-.084-.617-.322c-.235-.239-.48-.626-.69-1.127C5.82 10.654 5.561 9.4 5.51 8zm4.978 0h2.489a5.481 5.481 0 0 1-3.62 4.682 5.85 5.85 0 0 0 .372-.746c.439-1.054.71-2.422.76-3.936z" style="fill:#3d3846"/></svg>