<svg xmlns="http://www.w3.org/2000/svg" height="16" width="16">
    <path d="M2.2 0C.943 0 0 1.1 0 2.318v11.364C0 14.9.944 16 2.2 16h11.6c1.256 0 2.2-1.1 2.2-2.318V2.318C16 1.1 15.056 0 13.8 0Zm0 2h11.6c.074 0 .2.075.2.318v11.364c0 .243-.126.318-.2.318H2.2c-.074 0-.2-.075-.2-.318V2.318C2 2.075 2.126 2 2.2 2Z" style="color:#bebebe;font-style:normal;font-variant:normal;font-weight:400;font-stretch:normal;font-size:medium;line-height:normal;font-family:sans-serif;font-variant-ligatures:normal;font-variant-position:normal;font-variant-caps:normal;font-variant-numeric:normal;font-variant-alternates:normal;font-feature-settings:normal;text-indent:0;text-align:start;text-decoration:none;text-decoration-line:none;text-decoration-style:solid;text-decoration-color:#000;letter-spacing:normal;word-spacing:normal;text-transform:none;writing-mode:lr-tb;direction:ltr;text-orientation:mixed;dominant-baseline:auto;baseline-shift:baseline;text-anchor:start;white-space:normal;shape-padding:0;clip-rule:nonzero;display:inline;overflow:visible;visibility:visible;opacity:1;isolation:auto;mix-blend-mode:normal;color-interpolation:sRGB;color-interpolation-filters:linearRGB;solid-color:#000;solid-opacity:1;vector-effect:none;fill:#241f31;fill-opacity:1;fill-rule:nonzero;stroke:none;stroke-width:2;stroke-linecap:butt;stroke-linejoin:miter;stroke-miterlimit:4;stroke-dasharray:none;stroke-dashoffset:0;stroke-opacity:1;marker:none;color-rendering:auto;image-rendering:auto;shape-rendering:auto;text-rendering:auto;enable-background:accumulate"/>
    <path d="M-14.52 10.488c1.14 0 1.836-.66 2.388-1.44.504.78 1.176 1.44 2.388 1.44 1.572 0 2.628-1.068 2.628-2.64 0-1.488-.972-2.472-2.376-2.472-1.104 0-1.8.624-2.352 1.356-.48-.732-1.14-1.356-2.352-1.356-1.596 0-2.688 1.056-2.688 2.64 0 1.476.972 2.472 2.364 2.472zm-.804-2.58c0-.744.396-1.236 1.056-1.236.744 0 1.152.624 1.56 1.38-.42.636-.864 1.14-1.524 1.14-.672 0-1.092-.516-1.092-1.284zm5.544-1.236c.648 0 1.104.492 1.104 1.32 0 .72-.36 1.2-1.02 1.2-.78 0-1.176-.672-1.572-1.452.408-.6.852-1.068 1.488-1.068z" transform="translate(20)" style="font-style:normal;font-variant:normal;font-weight:700;font-stretch:normal;font-size:12px;line-height:1.25;font-family:Cantarell;-inkscape-font-specification:'Cantarell Bold';text-align:center;letter-spacing:0;word-spacing:0;text-anchor:middle;fill:#241f31;fill-opacity:1;stroke:none" aria-label="∞"/>
</svg>
