<?xml version="1.0" encoding="UTF-8"?>
<svg height="16px" viewBox="0 0 16 16" width="16px" xmlns="http://www.w3.org/2000/svg">
    <path d="m 8 1 c -0.710938 0.003906 -1.316406 0.523438 -1.4375 1.238281 c -1.542969 0.597657 -2.558594 2.085938 -2.5625 3.742188 c 0 0.007812 0 0.011719 0.003906 0.019531 h -0.003906 v 4 h -0.5 c -0.554688 0 -1 0.445312 -1 1 s 0.445312 1 1 1 h 9 c 0.554688 0 1 -0.445312 1 -1 s -0.445312 -1 -1 -1 h -0.5 v -4 c 0 -0.007812 0 -0.011719 0 -0.019531 c 0 -1.660157 -1.015625 -3.152344 -2.558594 -3.75 c -0.128906 -0.710938 -0.734375 -1.230469 -1.441406 -1.230469 z m -2 12 c 0 0.714844 0.382812 1.375 1 1.730469 c 0.617188 0.359375 1.382812 0.359375 2 0 c 0.617188 -0.355469 1 -1.015625 1 -1.730469 z m 0 0" fill="#222222"/>
</svg>
