<?xml version="1.0" encoding="UTF-8"?>
<svg height="16px" viewBox="0 0 16 16" width="16px" xmlns="http://www.w3.org/2000/svg">
    <path d="m 12.039062 1 c -0.257812 -0.011719 -0.523437 0.078125 -0.726562 0.28125 l -2.3125 2.292969 v 1.421875 h 1.390625 l 2.304687 -2.296875 c 0.40625 -0.40625 0.359376 -1.042969 0.03125 -1.394531 c -0.175781 -0.183594 -0.429687 -0.292969 -0.6875 -0.304688 z m -4.039062 1 c -0.296875 0 -0.578125 0.128906 -0.769531 0.355469 l -2.730469 2.640625 h -1.5 c -1.09375 0 -2 0.84375 -2 2 v 2 c 0 1.089844 0.910156 2 2 2 h 1.5 l 2.730469 2.640625 c 0.210937 0.253906 0.492187 0.363281 0.769531 0.359375 z m 1 4.996094 v 2 h 5 c 0.75 0 1 -0.5 1 -1 s -0.25 -1 -1 -1 z m 0 4 v 1.421875 l 2.324219 2.292969 c 0.402343 0.414062 1.0625 0.347656 1.414062 -0.023438 c 0.328125 -0.351562 0.371094 -0.988281 -0.03125 -1.390625 l -2.316406 -2.300781 z m 0 0" fill="#222222"/>
</svg>
