<?xml version="1.0" encoding="UTF-8"?>
<svg height="16px" viewBox="0 0 16 16" width="16px" xmlns="http://www.w3.org/2000/svg">
    <path d="m 3 0 c -1.644531 0 -3 1.355469 -3 3 v 10 c 0 1.644531 1.355469 3 3 3 h 10 c 1.644531 0 3 -1.355469 3 -3 v -10 c 0 -1.644531 -1.355469 -3 -3 -3 z m 0 2 h 10 c 0.570312 0 1 0.429688 1 1 v 10 c 0 0.570312 -0.429688 1 -1 1 h -10 c -0.570312 0 -1 -0.429688 -1 -1 v -10 c 0 -0.570312 0.429688 -1 1 -1 z m 2.46875 3.402344 c -0.347656 0 -0.671875 0.074218 -0.972656 0.21875 c -0.296875 0.132812 -0.558594 0.332031 -0.769532 0.582031 c -0.222656 0.253906 -0.394531 0.550781 -0.507812 0.867187 c -0.117188 0.351563 -0.175781 0.71875 -0.175781 1.089844 c 0 0.398438 0.058593 0.765625 0.175781 1.105469 c 0.125 0.328125 0.292969 0.617187 0.507812 0.867187 c 0.210938 0.246094 0.46875 0.4375 0.769532 0.582032 c 0.710937 0.320312 1.53125 0.257812 2.191406 -0.160156 c 0.40625 -0.25 0.828125 -0.636719 1.261719 -1.160157 c 0.425781 0.558594 0.851562 0.964844 1.277343 1.207031 c 0.4375 0.242188 0.867188 0.363282 1.292969 0.363282 c 0.347657 0 0.671875 -0.070313 0.972657 -0.203125 c 0.296874 -0.148438 0.554687 -0.339844 0.769531 -0.582031 c 0.210937 -0.253907 0.375 -0.546876 0.492187 -0.886719 c 0.125 -0.339844 0.1875 -0.699219 0.1875 -1.089844 c 0 -0.386719 -0.0625 -0.75 -0.1875 -1.089844 c -0.105468 -0.316406 -0.273437 -0.613281 -0.492187 -0.867187 c -0.210938 -0.25 -0.472657 -0.449219 -0.769531 -0.582032 c -0.304688 -0.144531 -0.636719 -0.21875 -0.972657 -0.21875 c -0.417969 0 -0.828125 0.128907 -1.234375 0.378907 c -0.398437 0.242187 -0.8125 0.625 -1.25 1.148437 c -0.425781 -0.5625 -0.855468 -0.964844 -1.289062 -1.207031 c -0.425782 -0.242187 -0.851563 -0.363281 -1.277344 -0.363281 z m 0.117188 1.742187 c 0.191406 0 0.390624 0.066407 0.59375 0.203125 c 0.203124 0.125 0.460937 0.390625 0.769531 0.796875 c -0.136719 0.183594 -0.28125 0.355469 -0.433594 0.523438 c -0.105469 0.117187 -0.222656 0.222656 -0.351563 0.320312 c -0.09375 0.0625 -0.195312 0.109375 -0.304687 0.144531 c -0.09375 0.027344 -0.191406 0.042969 -0.289063 0.046876 c -0.226562 0 -0.441406 -0.101563 -0.578124 -0.28125 c -0.148438 -0.179688 -0.222657 -0.429688 -0.222657 -0.738282 s 0.074219 -0.554687 0.222657 -0.738281 c 0.144531 -0.179687 0.363281 -0.28125 0.59375 -0.277344 z m 4.832031 0.042969 c 0.230469 0 0.421875 0.09375 0.566406 0.277344 c 0.15625 0.183594 0.234375 0.429687 0.234375 0.738281 c 0 0.3125 -0.078125 0.558594 -0.234375 0.742187 c -0.136719 0.179688 -0.355469 0.28125 -0.582031 0.277344 c -0.191406 0 -0.390625 -0.066406 -0.59375 -0.191406 c -0.203125 -0.136719 -0.460938 -0.40625 -0.769532 -0.8125 c 0.164063 -0.210938 0.308594 -0.386719 0.433594 -0.523438 c 0.105469 -0.113281 0.222656 -0.214843 0.347656 -0.300781 c 0.089844 -0.070312 0.1875 -0.125 0.292969 -0.160156 c 0.097657 -0.03125 0.199219 -0.046875 0.304688 -0.046875 z m 0 0" fill="#222222"/>
</svg>
