<?xml version="1.0" encoding="UTF-8"?>
<svg height="16px" viewBox="0 0 16 16" width="16px" xmlns="http://www.w3.org/2000/svg">
    <g fill="#222222">
        <path d="m 0 1 v 13 h 6 c 0.175781 0 0.523438 0.152344 0.8125 0.34375 s 0.46875 0.375 0.46875 0.375 l 0.71875 0.71875 l 0.71875 -0.75 s 0.894531 -0.6875 1.28125 -0.6875 h 6 v -13 h -6 c -0.878906 0 -1.558594 0.347656 -2.03125 0.6875 c -0.03125 -0.019531 -0.03125 -0.011719 -0.0625 -0.03125 c -0.460938 -0.304688 -1.078125 -0.65625 -1.90625 -0.65625 z m 2 2 h 4 c 0.136719 0 0.515625 0.148438 0.8125 0.34375 s 0.5 0.375 0.5 0.375 l 0.71875 0.6875 l 0.6875 -0.71875 s 0.898438 -0.6875 1.28125 -0.6875 h 4 v 9 h -4 c -0.878906 0 -1.558594 0.347656 -2.03125 0.6875 c -0.019531 -0.011719 -0.011719 -0.015625 -0.03125 -0.03125 c -0.460938 -0.308594 -1.101562 -0.65625 -1.9375 -0.65625 h -4 z m 0 0"/>
        <path d="m 3.375 5 c -0.097656 0 -0.195312 0.039062 -0.265625 0.109375 s -0.109375 0.167969 -0.109375 0.265625 v 1.25 c 0 0.207031 0.167969 0.375 0.375 0.375 h 2.25 c 0.097656 0 0.195312 -0.039062 0.265625 -0.109375 s 0.109375 -0.167969 0.109375 -0.265625 v -1.25 c 0 -0.097656 -0.039062 -0.195312 -0.109375 -0.265625 s -0.167969 -0.109375 -0.265625 -0.109375 z m 7 0 c -0.097656 0 -0.195312 0.039062 -0.265625 0.109375 s -0.109375 0.167969 -0.109375 0.265625 v 1.25 c 0 0.207031 0.167969 0.375 0.375 0.375 h 2.25 c 0.097656 0 0.195312 -0.039062 0.265625 -0.109375 s 0.109375 -0.167969 0.109375 -0.265625 v -1.25 c 0 -0.097656 -0.039062 -0.195312 -0.109375 -0.265625 s -0.167969 -0.109375 -0.265625 -0.109375 z m -7 3 c -0.097656 0 -0.195312 0.039062 -0.265625 0.109375 s -0.109375 0.167969 -0.109375 0.265625 v 1.25 c 0 0.207031 0.167969 0.375 0.375 0.375 h 2.25 c 0.097656 0 0.195312 -0.039062 0.265625 -0.109375 s 0.109375 -0.167969 0.109375 -0.265625 v -1.25 c 0 -0.097656 -0.039062 -0.195312 -0.109375 -0.265625 s -0.167969 -0.109375 -0.265625 -0.109375 z m 7 0 c -0.097656 0 -0.195312 0.039062 -0.265625 0.109375 s -0.109375 0.167969 -0.109375 0.265625 v 1.25 c 0 0.207031 0.167969 0.375 0.375 0.375 h 2.25 c 0.097656 0 0.195312 -0.039062 0.265625 -0.109375 s 0.109375 -0.167969 0.109375 -0.265625 v -1.25 c 0 -0.097656 -0.039062 -0.195312 -0.109375 -0.265625 s -0.167969 -0.109375 -0.265625 -0.109375 z m 0 0" fill-opacity="0.34902"/>
    </g>
</svg>
