<?xml version="1.0" encoding="UTF-8"?>
<svg height="16px" viewBox="0 0 16 16" width="16px" xmlns="http://www.w3.org/2000/svg">
    <path d="m 1 2 v 6 l 6.691406 6.691406 c 0.1875 0.1875 0.414063 0.203125 0.597656 0.019532 l 6.382813 -6.382813 c 0.222656 -0.222656 0.207031 -0.449219 0.019531 -0.636719 l -6.691406 -6.691406 h -6 c -0.464844 0 -1 0.492188 -1 1 z m 3 0.960938 c 0.394531 -0.015626 0.761719 0.183593 0.964844 0.523437 c 0.203125 0.335937 0.203125 0.757813 0 1.09375 c -0.203125 0.339844 -0.570313 0.539063 -0.964844 0.523437 c -0.574219 -0.027343 -1.023438 -0.496093 -1.023438 -1.070312 s 0.449219 -1.042969 1.023438 -1.070312 z m 0 0" fill="#222222"/>
</svg>
