<svg height="16" width="16" xmlns="http://www.w3.org/2000/svg">
    <path d="M0 1v13h6c.175 0 .525.152.813.344.287.192.468.375.468.375l.719.718.719-.75S9.615 14 10 14h6V1h-6c-.877 0-1.56.348-2.031.688-.03-.021-.031-.011-.063-.032C7.446 1.353 6.828 1 6 1Zm2 2h4c.138 0 .515.147.813.344.297.196.5.375.5.375l.718.687.688-.718S9.619 3 10 3h4v9h-4c-.877 0-1.56.347-2.031.688-.02-.014-.011-.018-.031-.032C7.478 12.348 6.835 12 6 12H2Z" style="color:#bebebe;font-style:normal;font-variant:normal;font-weight:400;font-stretch:normal;font-size:medium;line-height:normal;font-family:Sans;-inkscape-font-specification:Sans;text-indent:0;text-align:start;text-decoration:none;text-decoration-line:none;letter-spacing:normal;word-spacing:normal;text-transform:none;writing-mode:lr-tb;direction:ltr;baseline-shift:baseline;text-anchor:start;display:inline;overflow:visible;visibility:visible;fill:#2e3436;fill-opacity:1;stroke:none;stroke-width:1;marker:none;enable-background:accumulate"/>
    <path style="color:#bebebe;display:inline;overflow:visible;visibility:visible;opacity:1;fill:#2e3436;fill-opacity:.5;stroke:none;stroke-width:1;marker:none" d="M3.375 5A.374.374 0 0 0 3 5.375v1.25c0 .208.167.375.375.375h2.25A.374.374 0 0 0 6 6.625v-1.25A.374.374 0 0 0 5.625 5h-2.25zm7 0a.374.374 0 0 0-.375.375v1.25c0 .208.167.375.375.375h2.25A.374.374 0 0 0 13 6.625v-1.25A.374.374 0 0 0 12.625 5h-2.25zm-7 3A.374.374 0 0 0 3 8.375v1.25c0 .208.167.375.375.375h2.25A.374.374 0 0 0 6 9.625v-1.25A.374.374 0 0 0 5.625 8h-2.25zm7 0a.374.374 0 0 0-.375.375v1.25c0 .208.167.375.375.375h2.25A.374.374 0 0 0 13 9.625v-1.25A.374.374 0 0 0 12.625 8h-2.25z"/>
</svg>
