<?xml version="1.0" encoding="UTF-8"?>
<svg height="16px" viewBox="0 0 16 16" width="16px" xmlns="http://www.w3.org/2000/svg">
    <g fill="#222222">
        <path d="m 9 8 c -0.554688 0 -1 0.445312 -1 1 v 6 c 0 0.554688 0.445312 1 1 1 h 6 c 0.554688 0 1 -0.445312 1 -1 v -6 c 0 -0.554688 -0.445312 -1 -1 -1 z m 0 1 h 1 c 0.242188 0.007812 0.421875 0.082031 0.6875 0.3125 l 1.308594 1.277344 l 1.28125 -1.277344 c 0.183594 -0.1875 0.425781 -0.296875 0.6875 -0.3125 h 1.03125 v 1 c 0.027344 0.28125 -0.078125 0.554688 -0.28125 0.746094 l -1.28125 1.28125 l 1.28125 1.25 c 0.1875 0.1875 0.28125 0.453125 0.28125 0.71875 v 1 h -1 c -0.265625 -0.007813 -0.53125 -0.09375 -0.71875 -0.28125 l -1.28125 -1.28125 l -1.277344 1.28125 c -0.179688 0.199218 -0.453125 0.28125 -0.71875 0.28125 h -1 v -1 c -0.007812 -0.269532 0.09375 -0.527344 0.28125 -0.71875 l 1.246094 -1.25 l -1.277344 -1.28125 c -0.214844 -0.199219 -0.25 -0.460938 -0.25 -0.746094 z m 0 0"/>
        <path d="m 7.5 0 c -4.128906 0 -7.5 3.371094 -7.5 7.5 c 0 3.960938 3.101562 7.222656 7 7.480469 v -2.199219 c -0.039062 -0.03125 -0.078125 -0.0625 -0.117188 -0.105469 c -0.234374 -0.238281 -0.480468 -0.625 -0.6875 -1.125 c -0.375 -0.898437 -0.632812 -2.152343 -0.683593 -3.550781 h 1.488281 v -1 h -1.488281 c 0.046875 -1.398438 0.308593 -2.65625 0.683593 -3.550781 c 0.207032 -0.503907 0.453126 -0.886719 0.6875 -1.125 c 0.234376 -0.238281 0.433594 -0.324219 0.617188 -0.324219 s 0.382812 0.085938 0.617188 0.324219 c 0.234374 0.238281 0.480468 0.625 0.6875 1.125 c 0.375 0.898437 0.632812 2.152343 0.683593 3.550781 h 1 c -0.050781 -1.515625 -0.320312 -2.882812 -0.757812 -3.9375 c -0.109375 -0.253906 -0.230469 -0.503906 -0.375 -0.742188 c 2.019531 0.71875 3.433593 2.546876 3.621093 4.679688 h 2.003907 c -0.257813 -3.898438 -3.519531 -7 -7.480469 -7 z m -1.855469 2.320312 c -0.144531 0.238282 -0.265625 0.488282 -0.375 0.742188 c -0.4375 1.054688 -0.707031 2.421875 -0.757812 3.9375 h -2.488281 c 0.1875 -2.132812 1.601562 -3.960938 3.621093 -4.679688 z m -3.621093 5.679688 h 2.488281 c 0.050781 1.515625 0.320312 2.882812 0.757812 3.9375 c 0.113281 0.269531 0.238281 0.515625 0.375 0.742188 c -2.019531 -0.71875 -3.433593 -2.546876 -3.621093 -4.679688 z m 0 0" fill-opacity="0.34902"/>
    </g>
</svg>
