<?xml version="1.0" encoding="UTF-8" standalone="no"?>
<svg
   width="800"
   height="800"
   viewBox="0 0 800 800.00003"
   version="1.1"
   id="svg8"
   inkscape:version="1.2.1 (9c6d41e410, 2022-07-14)"
   sodipodi:docname="org.gnome.Epiphany-symbolic.Source.svg"
   xml:space="preserve"
   xmlns:inkscape="http://www.inkscape.org/namespaces/inkscape"
   xmlns:sodipodi="http://sodipodi.sourceforge.net/DTD/sodipodi-0.dtd"
   xmlns="http://www.w3.org/2000/svg"
   xmlns:svg="http://www.w3.org/2000/svg"
   xmlns:rdf="http://www.w3.org/1999/02/22-rdf-syntax-ns#"
   xmlns:cc="http://creativecommons.org/ns#"
   xmlns:dc="http://purl.org/dc/elements/1.1/"><defs
     id="defs2" /><sodipodi:namedview
     id="base"
     pagecolor="#ffffff"
     bordercolor="#666666"
     borderopacity="1.0"
     inkscape:pageopacity="0.0"
     inkscape:pageshadow="2"
     inkscape:zoom="8"
     inkscape:cx="97.0625"
     inkscape:cy="336.125"
     inkscape:document-units="px"
     inkscape:current-layer="layer2"
     showgrid="false"
     units="px"
     showborder="false"
     inkscape:window-width="1920"
     inkscape:window-height="1011"
     inkscape:window-x="0"
     inkscape:window-y="0"
     inkscape:window-maximized="1"
     inkscape:document-rotation="0"
     inkscape:pagecheckerboard="0"
     objecttolerance="10.0"
     gridtolerance="10.0"
     guidetolerance="10.0"
     inkscape:showpageshadow="0"
     inkscape:deskcolor="#d1d1d1"><inkscape:grid
       type="xygrid"
       id="grid843"
       empspacing="4" /></sodipodi:namedview><metadata
     id="metadata5"><rdf:RDF><cc:Work
         rdf:about=""><dc:format>image/svg+xml</dc:format><dc:type
           rdf:resource="http://purl.org/dc/dcmitype/StillImage" /></cc:Work></rdf:RDF></metadata><g
     inkscape:groupmode="layer"
     id="layer2"
     inkscape:label="resources"><g
       id="g78385"
       inkscape:label="ephy"><title
         id="title78387">ephy-open-link</title><rect
         style="fill:none;stroke:none;stroke-width:1.6;stroke-linecap:square;stroke-linejoin:round;stroke-dashoffset:2"
         id="rect73779"
         width="16"
         height="16"
         x="128"
         y="308" /><path
         id="path193961"
         style="fill:#222222;fill-opacity:1"
         d="m 131,310 c -1.662,0 -3,1.338 -3,3 v 8 c 0,1.662 1.338,3 3,3 h 8 c 1.662,0 3,-1.338 3,-3 v -4 c -2e-4,-0.5523 -0.4478,-1 -1,-1 -0.5522,0 -0.9998,0.4477 -1,1 v 4 c 0,0.554 -0.446,1 -1,1 h -8 c -0.554,0 -1,-0.446 -1,-1 v -8 c 0,-0.554 0.446,-1 1,-1 h 4 c 0.5523,0 1,-0.4477 1,-1 0,-0.5523 -0.4477,-1 -1,-1 z m 7,-2 c -0.5523,0 -1,0.4477 -1,1 0,0.5523 0.4477,1 1,1 h 2.584 l -5.291,5.291 c -0.3917,0.3907 -0.3917,1.0253 0,1.416 0.3905,0.3904 1.0236,0.3904 1.4141,0 L 142,311.4141 V 314 c 0,0.5523 0.4477,1 1,1 0.5523,0 1,-0.4477 1,-1 v -5 c -4e-4,-0.087 -0.012,-0.1738 -0.035,-0.2578 -0.023,-0.085 -0.056,-0.1662 -0.1,-0.2422 -0.043,-0.076 -0.097,-0.1452 -0.1582,-0.207 -0.015,-0.012 -0.031,-0.024 -0.047,-0.035 -0.055,-0.05 -0.1165,-0.093 -0.1816,-0.1289 -0.037,-0.019 -0.076,-0.035 -0.1152,-0.049 -0.051,-0.021 -0.1029,-0.037 -0.1563,-0.049 -0.04,-0.01 -0.08,-0.014 -0.1211,-0.018 -0.029,-0.01 -0.057,-0.01 -0.086,-0.012 z"
         sodipodi:nodetypes="sssssscscsssssssssscsscccccsssccscccccccc"
         inkscape:label="arrow box link external web http diagonal"><title
           id="title8267">external-link</title></path></g><g
       id="g78391"
       inkscape:label="ephy"><title
         id="title78393">ephy-download</title><rect
         style="fill:none;stroke:none;stroke-width:1.6;stroke-linecap:square;stroke-linejoin:round;stroke-dashoffset:2"
         id="rect73816"
         width="16"
         height="16"
         x="168"
         y="308" /><path
         id="rect190376"
         style="fill:#222222;fill-opacity:1"
         d="m 176,308 c -0.55228,0 -1,0.44772 -1,1 v 6.58594 l -1.29297,-1.29297 C 173.51953,314.10542 173.2652,314.00004 173,314 c -0.2652,4e-5 -0.51953,0.10542 -0.70703,0.29297 -0.39042,0.39051 -0.39042,1.02355 0,1.41406 l 3,3 c 0.39053,0.39037 1.02353,0.39037 1.41406,0 l 3,-3 c 0.39042,-0.39051 0.39042,-1.02355 0,-1.41406 -0.39051,-0.39042 -1.02355,-0.39042 -1.41406,0 L 177,315.58594 V 309 c 0,-0.55228 -0.44772,-1 -1,-1 z"
         sodipodi:nodetypes="sscccscccccccss" /></g><g
       id="g78378"
       inkscape:label="ephy"><title
         id="title78380">ephy-starred</title><rect
         style="fill:none;stroke:none;stroke-width:1.6;stroke-linecap:square;stroke-linejoin:round;stroke-dashoffset:2"
         id="rect73777"
         width="16"
         height="16"
         x="108"
         y="308" /><path
         d="m 116,308 c -0.42969,0 -0.8125,0.27344 -0.94922,0.68359 l -1.44922,4.33985 -4.58984,-0.0156 c -0.98047,-0.004 -1.38282,1.25782 -0.58203,1.82032 l 3.625,2.55468 -1.5,4.28516 c -0.31641,0.90234 0.6875,1.69141 1.49218,1.17187 l 4.00391,-2.59375 3.89453,2.58594 c 0.80078,0.53125 1.81641,-0.25781 1.5,-1.16015 l -1.50391,-4.28907 3.64454,-2.57812 c 0.78906,-0.5625 0.39453,-1.8086 -0.57422,-1.8125 l -4.66016,-0.0156 -1.40234,-4.28515 C 116.8164,308.28125 116.43359,308.00391 116,308 Z m 0,0"
         fill="#2e3436"
         id="path71279"
         style="fill:#222222;fill-opacity:1" /></g><g
       id="g78372"
       inkscape:label="ephy"><title
         id="title78374">ephy-non-starred</title><rect
         style="fill:none;stroke:none;stroke-width:1.6;stroke-linecap:square;stroke-linejoin:round;stroke-dashoffset:2"
         id="rect73775"
         width="16"
         height="16"
         x="88"
         y="308" /><path
         d="m 96,308 c -0.42969,0 -0.8125,0.27344 -0.94922,0.68359 l -1.44922,4.33985 -4.58984,-0.0156 c -0.4375,0 -0.82813,0.28125 -0.96094,0.69532 -0.13281,0.41796 0.0195,0.87109 0.37891,1.125 l 3.625,2.55468 -1.5,4.28516 c -0.14063,0.40625 -0.0117,0.85547 0.32812,1.12109 0.33594,0.26172 0.80469,0.28516 1.16406,0.0508 l 4.00391,-2.59375 3.89453,2.58594 c 0.35938,0.23828 0.82813,0.22266 1.16797,-0.043 0.33984,-0.26172 0.47266,-0.71484 0.33203,-1.11718 l -1.50391,-4.28907 3.64454,-2.57812 c 0.35156,-0.25 0.5039,-0.70313 0.37109,-1.11328 -0.12891,-0.41407 -0.51172,-0.69532 -0.94531,-0.69922 l -4.66016,-0.0156 -1.40234,-4.28515 C 96.8164,308.28125 96.43359,308.00391 96,308 Z m -0.008,4.1875 0.68359,2.09766 c 0.13281,0.40625 0.51563,0.6875 0.94531,0.6875 l 2.25391,0.008 -1.70312,1.20312 c -0.36329,0.25782 -0.51172,0.72657 -0.36329,1.14844 l 0.76563,2.19141 -1.96484,-1.30469 c -0.33204,-0.22266 -0.76172,-0.22266 -1.09766,-0.008 l -2.10156,1.36328 0.78515,-2.24219 c 0.14453,-0.42187 -0.004,-0.89062 -0.36718,-1.14844 l -1.65235,-1.16406 2.14453,0.008 c 0.42969,0 0.8125,-0.27734 0.94922,-0.68359 z m 0,0"
         fill="#2e3436"
         id="path71288"
         style="fill:#222222;fill-opacity:1" /></g><g
       id="g78843"
       inkscape:label="ephy"><title
         id="title78953">security-high</title><rect
         style="fill:none;stroke:none;stroke-width:1.6;stroke-linecap:square;stroke-linejoin:round;stroke-dashoffset:2"
         id="rect73763"
         width="16"
         height="16"
         x="88"
         y="268"><title
           id="title78368">security-high</title></rect><path
         id="path71350"
         style="color:#bebebe;line-height:normal;font-variant-ligatures:normal;font-variant-position:normal;font-variant-caps:normal;font-variant-numeric:normal;font-variant-alternates:normal;font-feature-settings:normal;text-indent:0;text-align:start;text-decoration-line:none;text-decoration-style:solid;text-decoration-color:#000000;text-transform:none;text-orientation:mixed;shape-padding:0;isolation:auto;mix-blend-mode:normal;fill:#cc0000;marker:none"
         d="m 90,269 v 7 c 0,2.072 1.498033,3.69467 2.832031,4.88867 a 18.66,18.66 0 0 0 2.660156,1.97266 l 0.515625,0.30469 0.511719,-0.31055 c 0,0 1.320392,-0.79996 2.650391,-2.00195 C 100.49992,279.64952 102,278.044 102,276 v -7 z m 2,2 h 8 v 5 c 0,0.92 -0.999923,2.31214 -2.169922,3.36914 -0.912999,0.825 -1.476938,1.15472 -1.835937,1.38672 -0.358,-0.226 -0.918126,-0.54242 -1.828125,-1.35742 C 93.000017,278.35544 92,276.98 92,276 Z m 1,1 v 4 c 0,0.357 0.754751,1.641 1.84375,2.625 0.574999,0.52 0.73625,0.58 1.15625,0.875 0.42,-0.294 0.581251,-0.355 1.15625,-0.875 C 98.246249,277.641 99,276.357 99,276 v -4 z"
         class="error" /></g><g
       id="g78399"
       inkscape:label="ephy"><title
         id="title78401">ephy-reader-mode</title><rect
         style="fill:none;stroke:none;stroke-width:1.6;stroke-linecap:square;stroke-linejoin:round;stroke-dashoffset:2"
         id="rect73814"
         width="16"
         height="16"
         x="148"
         y="308" /><g
         id="g71534"
         transform="translate(148,308)"><path
           d="m 0,1 v 13 h 6 c 0.175,0 0.525,0.152 0.813,0.344 0.287,0.192 0.468,0.375 0.468,0.375 L 8,15.437 8.719,14.687 C 8.719,14.687 9.615,14 10,14 h 6 V 1 H 10 C 9.123,1 8.44,1.348 7.969,1.688 7.939,1.667 7.938,1.677 7.906,1.656 7.446,1.353 6.828,1 6,1 Z m 2,2 h 4 c 0.138,0 0.515,0.147 0.813,0.344 0.297,0.196 0.5,0.375 0.5,0.375 L 8.031,4.406 8.719,3.688 C 8.719,3.688 9.619,3 10,3 h 4 v 9 H 10 C 9.123,12 8.44,12.347 7.969,12.688 7.949,12.674 7.958,12.67 7.938,12.656 7.478,12.348 6.835,12 6,12 H 2 Z"
           style="color:#bebebe;font-style:normal;font-variant:normal;font-weight:400;font-stretch:normal;font-size:medium;line-height:normal;font-family:Sans;-inkscape-font-specification:Sans;text-indent:0;text-align:start;text-decoration:none;text-decoration-line:none;letter-spacing:normal;word-spacing:normal;text-transform:none;writing-mode:lr-tb;direction:ltr;baseline-shift:baseline;text-anchor:start;display:inline;overflow:visible;visibility:visible;fill:#222222;fill-opacity:1;stroke:none;stroke-width:1;marker:none;enable-background:accumulate"
           id="path71522" /><path
           style="color:#bebebe;display:inline;overflow:visible;visibility:visible;opacity:1;fill:#222222;fill-opacity:0.34999999;stroke:none;stroke-width:1;marker:none"
           d="M 3.375,5 A 0.374,0.374 0 0 0 3,5.375 v 1.25 C 3,6.833 3.167,7 3.375,7 h 2.25 A 0.374,0.374 0 0 0 6,6.625 V 5.375 A 0.374,0.374 0 0 0 5.625,5 Z m 7,0 A 0.374,0.374 0 0 0 10,5.375 v 1.25 C 10,6.833 10.167,7 10.375,7 h 2.25 A 0.374,0.374 0 0 0 13,6.625 V 5.375 A 0.374,0.374 0 0 0 12.625,5 Z m -7,3 A 0.374,0.374 0 0 0 3,8.375 v 1.25 C 3,9.833 3.167,10 3.375,10 h 2.25 A 0.374,0.374 0 0 0 6,9.625 V 8.375 A 0.374,0.374 0 0 0 5.625,8 Z m 7,0 A 0.374,0.374 0 0 0 10,8.375 v 1.25 C 10,9.833 10.167,10 10.375,10 h 2.25 A 0.374,0.374 0 0 0 13,9.625 V 8.375 A 0.374,0.374 0 0 0 12.625,8 Z"
           id="path71524" /></g></g><g
       id="g78331"
       inkscape:label="ephy"><title
         id="title78333">ephy-library</title><rect
         style="fill:none;stroke:none;stroke-width:1.6;stroke-linecap:square;stroke-linejoin:round;stroke-dashoffset:2"
         id="rect73765"
         width="16"
         height="16"
         x="88"
         y="288" /><g
         id="g71574"
         transform="translate(88,288)"><path
           id="rect71556"
           style="fill:#222222;fill-opacity:1;stroke-width:0.917791;stroke-linecap:round;stroke-linejoin:round"
           d="M 11.771484 1.1855469 C 11.73827 1.1875738 11.70532 1.1922103 11.671875 1.2011719 L 10.705078 1.4589844 C 10.437517 1.5306772 10.27987 1.8047044 10.351562 2.0722656 L 13.716797 14.628906 C 13.78849 14.896467 14.062517 15.054115 14.330078 14.982422 L 15.294922 14.724609 C 15.562483 14.652917 15.72013 14.378889 15.648438 14.111328 L 12.283203 1.5546875 C 12.220472 1.3205715 12.003986 1.1713582 11.771484 1.1855469 z M 1.5 2 C 1.2230003 2 1 2.2230003 1 2.5 L 1 14.5 C 1 14.777 1.2230003 15 1.5 15 L 3.5 15 C 3.7769997 15 4 14.777 4 14.5 L 4 2.5 C 4 2.2230003 3.7769997 2 3.5 2 L 1.5 2 z M 8.5 3 C 8.2230003 3 8 3.2230003 8 3.5 L 8 14.5 C 8 14.777 8.2230003 15 8.5 15 L 9.5 15 C 9.7769997 15 10 14.777 10 14.5 L 10 3.5 C 10 3.2230003 9.7769997 3 9.5 3 L 8.5 3 z M 5.5 4 C 5.2230003 4 5 4.2230003 5 4.5 L 5 14.5 C 5 14.777 5.2230003 15 5.5 15 L 6.5 15 C 6.7769997 15 7 14.777 7 14.5 L 7 4.5 C 7 4.2230003 6.7769997 4 6.5 4 L 5.5 4 z " /></g></g><g
       id="g78337"
       inkscape:label="ephy"><title
         id="title78339">ephy-bookmark-tag</title><rect
         style="fill:none;stroke:none;stroke-width:1.6;stroke-linecap:square;stroke-linejoin:round;stroke-dashoffset:2"
         id="rect73767"
         width="16"
         height="16"
         x="108"
         y="288" /><path
         style="vector-effect:none;fill:#222222;fill-opacity:1;stroke:none;stroke-width:0.524404;stroke-linecap:butt;stroke-linejoin:bevel;stroke-miterlimit:4;stroke-dasharray:0.524404, 1.04881;stroke-dashoffset:0;stroke-opacity:0.948819;marker:none;marker-start:none;marker-mid:none;marker-end:none;paint-order:normal"
         d="m 109,290 v 6 l 6.691,6.691 c 0.188,0.188 0.413,0.205 0.598,0.02 l 6.383,-6.383 c 0.221,-0.221 0.207,-0.45 0.02,-0.636 L 116,289 h -6 c -0.464,0 -1,0.491 -1,1 z m 3,0.962 a 1.07,1.07 0 1 1 0,2.138 1.07,1.07 0 0 1 0,-2.138 z"
         id="path71576" /></g><g
       id="g78321"
       inkscape:label="ephy"><title
         id="title78323">channel-insecure</title><rect
         style="fill:none;stroke:none;stroke-width:1.6;stroke-linecap:square;stroke-linejoin:round;stroke-dashoffset:2"
         id="rect71716"
         width="16"
         height="16"
         x="168"
         y="590.51965"
         transform="translate(0,-322.51965)" /><path
         id="path71629"
         style="color:#bebebe;fill:#cc0000;marker:none"
         d="m 173,590.51965 c -1.645,0 -3,1.355 -3,3 v 3 h 2 v -3 c 0,-0.571 0.429,-1 1,-1 h 2 c 0.571,0 1,0.429 1,1 v 0.25 c 0.267,-0.15 0.557,-0.25 0.875,-0.25 H 178 c 0,-1.645 -1.355,-3 -3,-3 z m 3.875,4 a 0.863,0.863 0 0 0 -0.875,0.875 v 6.25 c 0,0.492 0.383,0.875 0.875,0.875 h 6.25 a 0.863,0.863 0 0 0 0.875,-0.875 v -6.25 a 0.863,0.863 0 0 0 -0.875,-0.875 z m 2.125,1 h 2 v 2.5 c 0,0 0,0.5 -0.5,0.5 h -1 c -0.5,0 -0.5,-0.5 -0.5,-0.5 z m -9,4 c 0,0 -1,0 -1,1 v 5 h 10 v -2 h -2.125 c -1.01,0 -1.875,-0.865 -1.875,-1.875 v -2.125 z m 9.5,0 h 1 c 0.277,0 0.5,0.223 0.5,0.5 v 1 c 0,0.277 -0.223,0.5 -0.5,0.5 h -1 a 0.499,0.499 0 0 1 -0.5,-0.5 v -1 c 0,-0.277 0.223,-0.5 0.5,-0.5 z"
         transform="translate(0,-322.51965)"
         class="error" /></g><g
       id="g78303"
       inkscape:label="ephy"><title
         id="title78305">computer-fail</title><rect
         style="fill:none;stroke:none;stroke-width:1.6;stroke-linecap:square;stroke-linejoin:round;stroke-dashoffset:2"
         id="rect73654"
         width="16"
         height="16"
         x="108"
         y="590.51965"
         transform="translate(0,-322.51965)" /><path
         d="m 112,591.51965 c -1.662,0 -3,1.338 -3,3 v 6 c 0,1.662 1.338,3 3,3 h 8 c 1.662,0 3,-1.338 3,-3 v -6 c 0,-1.662 -1.338,-3 -3,-3 z m 2,3 c 0.558,0 1.031,0.473 1.031,1.031 v 0.969 c 0,0.558 -0.473,1 -1.031,1 -0.558,0 -1,-0.442 -1,-1 v -0.969 c 0,-0.558 0.442,-1.031 1,-1.031 z m 4,0 c 0.558,0 1,0.473 1,1.031 v 0.969 c 0,0.558 -0.442,1 -1,1 -0.558,0 -1,-0.442 -1,-1 v -0.969 c 0,-0.558 0.442,-1.031 1,-1.031 z m -2,4.031 c 3.256,0 5,0.874 5,1.406 v 0.5 c -0.997,-0.636 -4.016,-0.906 -5,-0.906 -0.984,0 -3.805,-0.062 -5,0.906 v -0.5 c 0,-0.68 1.744,-1.406 5,-1.406 z m 0,5.969 c -5,0 -5,1 -5,1 0,1 1,1 1,1 h 8 c 1,0 1,-1 1,-1 0,0 0,-1 -5,-1 z"
         fill="#474747"
         style="fill:#222222;fill-opacity:1"
         id="path71620"
         transform="translate(0,-322.51965)" /></g><g
       id="g78309"
       inkscape:label="ephy"><title
         id="title78311">ephy-audio-playing</title><rect
         style="fill:none;stroke:none;stroke-width:1.6;stroke-linecap:square;stroke-linejoin:round;stroke-dashoffset:2"
         id="rect73656"
         width="16"
         height="16"
         x="128"
         y="590.51965"
         transform="translate(0,-322.51965)" /><path
         id="path9704"
         style="fill:#222222;fill-opacity:1;stroke-width:1px;stroke-linejoin:miter"
         d="m 140.03906,269.00098 c -0.25893,-0.0108 -0.52442,0.0756 -0.72656,0.28125 L 137,271.57519 v 1.42188 h 1.39062 l 2.30469,-2.29883 c 0.40435,-0.40437 0.36131,-1.04131 0.0293,-1.39258 -0.17445,-0.18457 -0.42662,-0.29384 -0.68555,-0.30468 z M 136,270 c -0.29553,-10e-4 -0.57652,0.12805 -0.76758,0.35352 L 132.5,272.99707 H 131 c -1.09467,0 -2,0.84432 -2,2 v 2 c 0,1.0907 0.9093,2 2,2 h 1.5 l 2.73242,2.64062 c 0.2107,0.2522 0.49171,0.3619 0.76758,0.35938 z m 1,4.99707 v 2 h 5 c 0.7496,0 0.9993,-0.50135 1,-1.00195 6.9e-4,-0.49942 -0.25,-0.99805 -1,-0.99805 z m 0,4 v 1.42188 l 2.32227,2.29296 c 0.40429,0.41126 1.06516,0.34571 1.41406,-0.0234 0.33201,-0.35127 0.3731,-0.98821 -0.0312,-1.39258 l -2.31451,-2.29886 z"
         sodipodi:nodetypes="scccccsscccssssccccccsssccccsccc" /></g><g
       id="g78351"
       transform="translate(-40,40)"
       inkscape:label="ephy"><title
         id="title78353">ephy-tab-overflow</title><rect
         style="fill:none;stroke:none;stroke-width:1.6;stroke-linecap:square;stroke-linejoin:round;stroke-dashoffset:2"
         id="rect73771"
         width="16"
         height="16"
         x="148"
         y="288" /><g
         id="g71309"
         transform="translate(148,288)"
         style="fill:#222222;fill-opacity:1"><path
           style="fill:#222222;fill-opacity:1"
           d="M 3,0 C 1.355,0 0,1.355 0,3 v 10 c 0,1.645 1.355,3 3,3 h 10 c 1.645,0 3,-1.355 3,-3 V 3 C 16,1.355 14.645,0 13,0 Z m 0,2 h 10 c 0.571,0 1,0.429 1,1 v 10 c 0,0.571 -0.429,1 -1,1 H 3 C 2.429,14 2,13.571 2,13 V 3 C 2,2.429 2.429,2 3,2 Z m 2.469,3.402 c -0.349,0 -0.673,0.074 -0.973,0.22 A 2.16,2.16 0 0 0 3.726,6.202 2.755,2.755 0 0 0 3.219,7.072 3.33,3.33 0 0 0 3.044,8.16 c 0,0.397 0.057,0.765 0.174,1.104 0.125,0.329 0.295,0.62 0.507,0.87 0.213,0.243 0.47,0.436 0.77,0.58 a 2.311,2.311 0 0 0 2.191,-0.158 c 0.407,-0.25 0.829,-0.639 1.264,-1.161 0.426,0.56 0.852,0.963 1.277,1.205 0.436,0.242 0.866,0.363 1.291,0.363 0.349,0 0.673,-0.068 0.973,-0.203 0.3,-0.145 0.557,-0.34 0.77,-0.582 0.212,-0.252 0.376,-0.546 0.492,-0.885 0.126,-0.339 0.19,-0.7 0.19,-1.088 0,-0.387 -0.064,-0.751 -0.19,-1.09 A 2.545,2.545 0 0 0 12.261,6.246 2.165,2.165 0 0 0 11.491,5.664 2.203,2.203 0 0 0 10.518,5.447 C 10.102,5.447 9.69,5.573 9.284,5.824 8.887,6.066 8.471,6.448 8.036,6.971 7.61,6.41 7.18,6.008 6.745,5.766 6.319,5.524 5.893,5.402 5.468,5.402 Z m 0.115,1.743 c 0.193,0 0.392,0.067 0.596,0.203 0.203,0.125 0.46,0.392 0.77,0.798 A 7.62,7.62 0 0 1 6.514,8.668 2.505,2.505 0 0 1 6.166,8.988 1.232,1.232 0 0 1 5.861,9.133 1.013,1.013 0 0 1 5.571,9.178 0.729,0.729 0 0 1 4.991,8.9 C 4.845,8.717 4.771,8.47 4.771,8.16 4.771,7.85 4.845,7.604 4.991,7.42 A 0.74,0.74 0 0 1 5.584,7.145 Z m 4.834,0.044 c 0.232,0 0.421,0.092 0.566,0.276 0.155,0.184 0.233,0.43 0.233,0.74 0,0.31 -0.078,0.556 -0.233,0.74 a 0.701,0.701 0 0 1 -0.58,0.276 C 10.211,9.221 10.012,9.157 9.808,9.031 9.605,8.896 9.348,8.625 9.038,8.219 9.203,8.006 9.348,7.833 9.474,7.697 a 1.86,1.86 0 0 1 0.348,-0.304 1.11,1.11 0 0 1 0.291,-0.16 c 0.097,-0.03 0.198,-0.044 0.305,-0.044 z"
           id="path453" /></g></g><g
       id="g78357"
       transform="translate(-40)"
       inkscape:label="ephy"><title
         id="title78359">ephy-webpage</title><rect
         style="fill:none;stroke:none;stroke-width:1.6;stroke-linecap:square;stroke-linejoin:round;stroke-dashoffset:2"
         id="rect73773"
         width="16"
         height="16"
         x="168"
         y="288" /><path
         d="m 175.5,288 c -4.13,0 -7.5,3.37 -7.5,7.5 0,4.13 3.37,7.5 7.5,7.5 4.13,0 7.5,-3.37 7.5,-7.5 0,-4.13 -3.37,-7.5 -7.5,-7.5 z m 0,2 c 0.183,0 0.382,0.084 0.617,0.322 0.235,0.239 0.48,0.626 0.69,1.127 0.373,0.897 0.632,2.151 0.683,3.551 h -3.98 c 0.05,-1.4 0.31,-2.654 0.683,-3.55 0.21,-0.502 0.455,-0.889 0.69,-1.128 0.235,-0.238 0.434,-0.322 0.617,-0.322 z m -1.857,0.318 a 5.85,5.85 0 0 0 -0.372,0.746 c -0.439,1.054 -0.71,2.422 -0.76,3.936 h -2.487 a 5.481,5.481 0 0 1 3.62,-4.682 z m 3.714,0 a 5.481,5.481 0 0 1 3.62,4.682 h -2.489 c -0.05,-1.514 -0.32,-2.882 -0.76,-3.936 a 5.85,5.85 0 0 0 -0.37,-0.746 z M 170.023,296 h 2.489 c 0.05,1.514 0.32,2.882 0.76,3.936 0.112,0.27 0.235,0.519 0.37,0.746 A 5.481,5.481 0 0 1 170.024,296 Z m 3.487,0 h 3.98 c -0.05,1.4 -0.31,2.654 -0.683,3.55 -0.21,0.502 -0.455,0.889 -0.69,1.128 -0.235,0.238 -0.434,0.322 -0.617,0.322 -0.183,0 -0.382,-0.084 -0.617,-0.322 -0.235,-0.239 -0.48,-0.626 -0.69,-1.127 -0.373,-0.897 -0.632,-2.151 -0.683,-3.551 z m 4.978,0 h 2.489 a 5.481,5.481 0 0 1 -3.62,4.682 5.85,5.85 0 0 0 0.372,-0.746 c 0.439,-1.054 0.71,-2.422 0.76,-3.936 z"
         style="fill:#222222;fill-opacity:1;stroke:none;stroke-width:1"
         id="path71320" /></g><g
       id="g78364"
       transform="translate(-40)"
       inkscape:label="ephy"><title
         id="title78366">network-error</title><rect
         style="fill:none;stroke:none;stroke-width:1.6;stroke-linecap:square;stroke-linejoin:round;stroke-dashoffset:2"
         id="rect73818"
         width="16"
         height="16"
         x="188"
         y="288" /><path
         style="fill:#222222;fill-opacity:1;stroke:none;stroke-width:1;stroke-opacity:1"
         d="m 197,296 c -0.554,0 -1,0.446 -1,1 v 6 c 0,0.554 0.446,1 1,1 h 6 c 0.554,0 1,-0.446 1,-1 v -6 c 0,-0.554 -0.446,-1 -1,-1 z m 0,1 h 1 c 0.242,0.008 0.42,0.083 0.686,0.313 l 1.312,1.277 1.28,-1.277 A 1.04,1.04 0 0 1 201.965,297 h 1.031 v 1 a 0.902,0.902 0 0 1 -0.283,0.748 l -1.28,1.281 1.282,1.248 c 0.187,0.188 0.281,0.453 0.281,0.72 v 1 h -1 c -0.266,-0.009 -0.53,-0.096 -0.719,-0.284 l -1.279,-1.28 -1.281,1.282 c -0.176,0.199 -0.451,0.281 -0.717,0.281 h -1 v -1 a 1,1 0 0 1 0.281,-0.719 l 1.248,-1.248 -1.279,-1.281 C 197.035,298.548 197,298.285 197,298 Z"
         id="path71458" /><path
         id="path74238"
         style="fill:#222222;fill-opacity:0.34999999;stroke-width:1;stroke:#000000;stroke-opacity:0"
         d="m 195.5,288 c -4.13,0 -7.5,3.37 -7.5,7.5 0,3.96186 3.10165,7.2214 7,7.48047 v -2.19922 c -0.0385,-0.0322 -0.0767,-0.0625 -0.11719,-0.10352 -0.235,-0.239 -0.47945,-0.62595 -0.68945,-1.12695 -0.373,-0.897 -0.63259,-2.15078 -0.68359,-3.55078 H 195 v -1 h -1.49023 c 0.05,-1.4 0.31059,-2.65478 0.68359,-3.55078 0.21,-0.502 0.45445,-0.88795 0.68945,-1.12695 C 195.11781,290.08427 195.317,290 195.5,290 c 0.183,0 0.38219,0.0843 0.61719,0.32227 0.235,0.239 0.47945,0.62595 0.68945,1.12695 0.373,0.897 0.63259,2.15078 0.68359,3.55078 h 0.99805 c -0.05,-1.514 -0.31976,-2.88155 -0.75976,-3.93555 a 5.85,5.85 0 0 0 -0.3711,-0.74609 5.481,5.481 0 0 1 3.61914,4.68164 h 2.00391 c -0.25907,-3.89835 -3.51861,-7 -7.48047,-7 z m -1.85742,2.32031 a 5.85,5.85 0 0 0 -0.3711,0.74414 c -0.439,1.054 -0.70976,2.42155 -0.75976,3.93555 h -2.48828 a 5.481,5.481 0 0 1 3.61914,-4.67969 z M 190.02344,296 h 2.48828 c 0.05,1.514 0.31976,2.88155 0.75976,3.93555 0.112,0.27 0.2361,0.51909 0.3711,0.74609 A 5.481,5.481 0 0 1 190.02344,296 Z" /></g><g
       id="g78315"
       inkscape:label="ephy"><title
         id="title78317">ephy-audio-muted</title><rect
         style="fill:none;stroke:none;stroke-width:1.6;stroke-linecap:square;stroke-linejoin:round;stroke-dashoffset:2"
         id="rect73652"
         width="16"
         height="16"
         x="148"
         y="590.51965"
         transform="translate(0,-322.51965)" /><path
         id="path77558"
         style="fill:#222222;fill-opacity:1;stroke-width:1px;stroke-linejoin:miter"
         d="M 150.53125 269.46875 L 149.46875 270.53125 L 161.46875 282.53125 L 162.53125 281.46875 L 158 276.9375 L 158 270 C 157.70447 269.999 157.42348 270.12805 157.23242 270.35352 L 154.5 272.99609 L 154.05859 272.99609 L 150.53125 269.46875 z M 151.15234 274.21484 C 151.05483 274.45212 151 274.71394 151 274.99609 L 151 276.99609 C 151 278.08679 151.9093 278.99609 153 278.99609 L 154.5 278.99609 L 157.23242 281.63672 C 157.44312 281.88892 157.72413 281.99861 158 281.99609 L 158 281.0625 L 151.15234 274.21484 z " /></g><text
       xml:space="preserve"
       style="font-style:normal;font-variant:normal;font-weight:300;font-stretch:normal;font-size:40px;line-height:1.25;font-family:Cantarell;-inkscape-font-specification:'Cantarell, Light';font-variant-ligatures:normal;font-variant-caps:normal;font-variant-numeric:normal;font-feature-settings:normal;text-align:start;letter-spacing:0px;word-spacing:0px;writing-mode:lr-tb;text-anchor:start;fill:#000000;fill-opacity:1;stroke:none"
       x="77"
       y="416.51965"
       id="text817"
       transform="translate(0,-322.51965)"><tspan
         sodipodi:role="line"
         id="tspan815"
         x="77"
         y="416.51965">Symbolic Icons</tspan></text><path
       style="opacity:1;vector-effect:none;fill:#cdcdcd;fill-opacity:1;stroke:#a2a2a2;stroke-width:1;stroke-linecap:round;stroke-linejoin:miter;stroke-miterlimit:4;stroke-dasharray:none;stroke-dashoffset:0;stroke-opacity:1;marker:none;marker-start:none;marker-mid:none;marker-end:none;paint-order:normal"
       d="m 644.66454,463.88602 h 43.85369 c 1.86075,0 3.35875,1.498 3.35875,3.35875 v 12.10921 c 0,1.86075 -1.498,3.35876 -3.35875,3.35876 h -43.85369 c -1.86075,0 -3.35875,-1.49801 -3.35875,-3.35876 v -12.10921 c 0,-1.86075 1.498,-3.35875 3.35875,-3.35875 z"
       id="rect837"
       inkscape:connector-curvature="0"
       transform="translate(0,-322.51965)" /><flowRoot
       xml:space="preserve"
       id="flowRoot819"
       style="font-style:normal;font-variant:normal;font-weight:normal;font-stretch:normal;font-size:16px;line-height:1.25;font-family:Cantarell;-inkscape-font-specification:'Cantarell, Normal';font-variant-ligatures:normal;font-variant-caps:normal;font-variant-numeric:normal;font-feature-settings:normal;text-align:start;letter-spacing:0px;word-spacing:0px;writing-mode:lr-tb;text-anchor:start;fill:#000000;fill-opacity:1;stroke:none"
       transform="translate(43,30)"><flowRegion
         id="flowRegion821"
         style="font-style:normal;font-variant:normal;font-weight:normal;font-stretch:normal;font-size:16px;font-family:Cantarell;-inkscape-font-specification:'Cantarell, Normal';font-variant-ligatures:normal;font-variant-caps:normal;font-variant-numeric:normal;font-feature-settings:normal;text-align:start;writing-mode:lr-tb;text-anchor:start"><rect
           id="rect823"
           width="659"
           height="124"
           x="38"
           y="91"
           style="font-style:normal;font-variant:normal;font-weight:normal;font-stretch:normal;font-size:16px;font-family:Cantarell;-inkscape-font-specification:'Cantarell, Normal';font-variant-ligatures:normal;font-variant-caps:normal;font-variant-numeric:normal;font-feature-settings:normal;text-align:start;writing-mode:lr-tb;text-anchor:start" /></flowRegion><flowPara
         id="flowPara825">Each Inkscape layer will become the output context. Icons are composed of a group that contains a 16x16px rectangle object. Duplicate it and enter the group with                             to edit. </flowPara><flowPara
         id="flowPara843" /><flowPara
         id="flowPara845">As the bounding box is set to no-stroke, no-fill you will find it useful to work in outline view mode.</flowPara></flowRoot><path
       style="opacity:1;vector-effect:none;fill:#cdcdcd;fill-opacity:1;stroke:#a2a2a2;stroke-width:1;stroke-linecap:round;stroke-linejoin:miter;stroke-miterlimit:4;stroke-dasharray:none;stroke-dashoffset:0;stroke-opacity:1;marker:none;marker-start:none;marker-mid:none;marker-end:none;paint-order:normal"
       d="m 606.36468,463.88602 h 28.6248 c 1.86075,0 3.35876,1.498 3.35876,3.35875 v 12.10921 c 0,1.86075 -1.49801,3.35876 -3.35876,3.35876 h -28.6248 c -1.86075,0 -3.35876,-1.49801 -3.35876,-3.35876 v -12.10921 c 0,-1.86075 1.49801,-3.35875 3.35876,-3.35875 z"
       id="rect835"
       inkscape:connector-curvature="0"
       transform="translate(0,-322.51965)" /><text
       xml:space="preserve"
       style="font-style:normal;font-variant:normal;font-weight:800;font-stretch:normal;font-size:13.3333px;line-height:1.25;font-family:Cantarell;-inkscape-font-specification:'Cantarell, Ultra-Bold';font-variant-ligatures:normal;font-variant-caps:normal;font-variant-numeric:normal;font-feature-settings:normal;text-align:start;letter-spacing:0px;word-spacing:0px;writing-mode:lr-tb;text-anchor:start;fill:#000000;fill-opacity:1;stroke:none"
       x="607.659"
       y="478.13315"
       id="text829"
       transform="translate(0,-322.51965)"><tspan
         sodipodi:role="line"
         id="tspan827"
         x="607.659"
         y="478.13315">Ctrl</tspan></text><text
       id="text833"
       y="478.13315"
       x="649.6842"
       style="font-style:normal;font-variant:normal;font-weight:800;font-stretch:normal;font-size:13.3333px;line-height:1.25;font-family:Cantarell;-inkscape-font-specification:'Cantarell, Ultra-Bold';font-variant-ligatures:normal;font-variant-caps:normal;font-variant-numeric:normal;font-feature-settings:normal;text-align:start;letter-spacing:0px;word-spacing:0px;writing-mode:lr-tb;text-anchor:start;fill:#000000;fill-opacity:1;stroke:none"
       xml:space="preserve"
       transform="translate(0,-322.51965)"><tspan
         y="478.13315"
         x="649.6842"
         id="tspan831"
         sodipodi:role="line">Enter</tspan></text><flowRoot
       transform="translate(43,345)"
       style="font-style:normal;font-variant:normal;font-weight:normal;font-stretch:normal;font-size:16px;line-height:1.25;font-family:Cantarell;-inkscape-font-specification:'Cantarell, Normal';font-variant-ligatures:normal;font-variant-caps:normal;font-variant-numeric:normal;font-feature-settings:normal;text-align:start;letter-spacing:0px;word-spacing:0px;writing-mode:lr-tb;text-anchor:start;fill:#000000;fill-opacity:1;stroke:none"
       id="flowRoot867"
       xml:space="preserve"><flowRegion
         style="font-style:normal;font-variant:normal;font-weight:normal;font-stretch:normal;font-size:16px;font-family:Cantarell;-inkscape-font-specification:'Cantarell, Normal';font-variant-ligatures:normal;font-variant-caps:normal;font-variant-numeric:normal;font-feature-settings:normal;text-align:start;writing-mode:lr-tb;text-anchor:start"
         id="flowRegion863"><rect
           style="font-style:normal;font-variant:normal;font-weight:normal;font-stretch:normal;font-size:16px;font-family:Cantarell;-inkscape-font-specification:'Cantarell, Normal';font-variant-ligatures:normal;font-variant-caps:normal;font-variant-numeric:normal;font-feature-settings:normal;text-align:start;writing-mode:lr-tb;text-anchor:start"
           y="91"
           x="38"
           height="124"
           width="659"
           id="rect861" /></flowRegion><flowPara
         id="flowPara865">To name an icon, use <flowSpan
   style="font-weight:bold"
   id="flowSpan869">Object Properties</flowSpan> and set its<flowSpan
   style="font-weight:bold"
   id="flowSpan873"> title</flowSpan>. <flowSpan
   style="font-weight:bold"
   id="flowSpan871">Label</flowSpan> attribute holds space separated keywords used for search. Color of the icon doesn't matter as all of them recolor at run time.</flowPara></flowRoot><g
       id="g1106"
       transform="translate(-60,40)"
       inkscape:label="ephy"><title
         id="title1098">ephy-tab-counter</title><rect
         style="fill:none;stroke:none;stroke-width:1.6;stroke-linecap:square;stroke-linejoin:round;stroke-dashoffset:2"
         id="rect1100"
         width="16"
         height="16"
         x="148"
         y="288" /><g
         id="g1104"
         transform="translate(148,288)"
         style="fill:#222222;fill-opacity:1"><path
           style="fill:#222222;fill-opacity:1"
           d="M 3,0 C 1.355,0 0,1.355 0,3 v 10 c 0,1.645 1.355,3 3,3 h 10 c 1.645,0 3,-1.355 3,-3 V 3 C 16,1.355 14.645,0 13,0 Z m 0,2 h 10 c 0.571,0 1,0.429 1,1 v 10 c 0,0.571 -0.429,1 -1,1 H 3 C 2.429,14 2,13.571 2,13 V 3 C 2,2.429 2.429,2 3,2 Z"
           id="path1102"
           sodipodi:nodetypes="ssssssssssssssssss" /></g></g></g></svg>
