<svg xmlns="http://www.w3.org/2000/svg" height="16" width="16">
    <path d="M4 5h1.031c.255.011.51.129.688.313L8 7.592l2.313-2.28c.265-.231.446-.306.687-.313h1v1c0 .286-.034.55-.25.75L9.469 9.031l2.25 2.25c.188.188.281.454.281.719v1h-1c-.265 0-.53-.093-.719-.281L8 10.438l-2.281 2.28A1.015 1.015 0 0 1 5 13H4v-1c0-.265.093-.53.281-.719l2.282-2.25L4.28 6.75A.909.909 0 0 1 4 6Z" style="color:#bebebe;font-style:normal;font-variant:normal;font-weight:400;font-stretch:normal;font-size:medium;line-height:normal;font-family:'Andale Mono';-inkscape-font-specification:'Andale Mono';text-indent:0;text-align:start;text-decoration:none;text-decoration-line:none;letter-spacing:normal;word-spacing:normal;text-transform:none;writing-mode:lr-tb;direction:ltr;text-anchor:start;display:inline;overflow:visible;visibility:visible;fill:#000;fill-opacity:1;fill-rule:nonzero;stroke:none;stroke-width:1.78124988;marker:none;enable-background:new;opacity:.3"/>
    <path style="color:#bebebe;font-style:normal;font-variant:normal;font-weight:400;font-stretch:normal;font-size:medium;line-height:normal;font-family:'Andale Mono';-inkscape-font-specification:'Andale Mono';text-indent:0;text-align:start;text-decoration:none;text-decoration-line:none;letter-spacing:normal;word-spacing:normal;text-transform:none;writing-mode:lr-tb;direction:ltr;text-anchor:start;display:inline;overflow:visible;visibility:visible;fill:#fff;fill-opacity:1;fill-rule:nonzero;stroke:none;stroke-width:1.78124988;marker:none;enable-background:new" d="M4 4h1.031c.255.011.51.129.688.313L8 6.592l2.313-2.28c.265-.231.446-.306.687-.313h1v1c0 .286-.034.55-.25.75L9.469 8.031l2.25 2.25c.188.188.281.454.281.719v1h-1c-.265 0-.53-.093-.719-.281L8 9.438l-2.281 2.28A1.015 1.015 0 0 1 5 12H4v-1c0-.265.093-.53.281-.719l2.282-2.25L4.28 5.75A.909.909 0 0 1 4 5Z"/>
</svg>
