<svg xmlns="http://www.w3.org/2000/svg" height="16" width="16" viewBox="0 0 16 16">
  <!-- Shadow (Offset by 1px down) -->
  <g transform="translate(0, 1)" opacity="0.3" stroke="#000" fill="none" stroke-linecap="round" stroke-linejoin="round">
    <path d="M 8 15 L 8 10" stroke-width="1" />
    <path d="M 4 9 L 12 9 L 10 6 L 11.2572193 2.85695338 C 11.4240894 2.43977809, 11.3731556 1.96699727, 11.1212578 1.59493721 C 10.8693609 1.22287714, 10.4493113 0.999999702, 10 0.99999994 L 6 1 C 5.54237175 1, 5.11342001 1.22288549, 4.85036755 1.59735489 C 4.58731508 1.97182429, 4.52313042 2.45094609, 4.6783452 2.88144827 L 6 6 Z" stroke-width="2" />
  </g>
  <!-- Foreground (White) -->
  <g stroke="#fff" fill="none" stroke-linecap="round" stroke-linejoin="round">
    <path d="M 8 15 L 8 10" stroke-width="1" />
    <path d="M 4 9 L 12 9 L 10 6 L 11.2572193 2.85695338 C 11.4240894 2.43977809, 11.3731556 1.96699727, 11.1212578 1.59493721 C 10.8693609 1.22287714, 10.4493113 0.999999702, 10 0.99999994 L 6 1 C 5.54237175 1, 5.11342001 1.22288549, 4.85036755 1.59735489 C 4.58731508 1.97182429, 4.52313042 2.45094609, 4.6783452 2.88144827 L 6 6 Z" stroke-width="2" />
  </g>
</svg>
