<?xml version="1.0" encoding="UTF-8"?>
<svg height="16px" viewBox="0 0 16 16" width="16px" xmlns="http://www.w3.org/2000/svg">
    <path d="m 2 1 v 7 c 0 2.070312 1.496094 3.695312 2.832031 4.886719 c 0.828125 0.738281 1.714844 1.398437 2.660157 1.976562 l 0.515624 0.304688 l 0.511719 -0.3125 s 1.320313 -0.800781 2.652344 -2 c 1.328125 -1.207031 2.828125 -2.8125 2.828125 -4.855469 v -7 z m 2 2 h 8 v 5 c 0 0.921875 -1 2.3125 -2.171875 3.367188 c -0.910156 0.828124 -1.476563 1.15625 -1.832031 1.390624 c -0.359375 -0.226562 -0.921875 -0.542968 -1.828125 -1.359374 c -1.167969 -1.042969 -2.167969 -2.417969 -2.167969 -3.398438 z m 1 1 v 4 c 0 0.355469 0.753906 1.640625 1.84375 2.625 c 0.574219 0.519531 0.734375 0.578125 1.15625 0.875 c 0.421875 -0.292969 0.582031 -0.355469 1.15625 -0.875 c 1.089844 -0.984375 1.84375 -2.269531 1.84375 -2.625 v -4 z m 0 0" fill="#cc0000"/>
</svg>
