<?xml version="1.0" encoding="UTF-8" standalone="no"?>
<svg
   xmlns:dc="http://purl.org/dc/elements/1.1/"
   xmlns:cc="http://creativecommons.org/ns#"
   xmlns:rdf="http://www.w3.org/1999/02/22-rdf-syntax-ns#"
   xmlns:svg="http://www.w3.org/2000/svg"
   xmlns="http://www.w3.org/2000/svg"
   id="svg12770"
   version="1.1"
   viewBox="0 0 48 48.000001"
   height="48"
   width="48">
  <defs
     id="defs12764" />
  <metadata
     id="metadata12767">
    <rdf:RDF>
      <cc:Work
         rdf:about="">
        <dc:format>image/svg+xml</dc:format>
        <dc:type
           rdf:resource="http://purl.org/dc/dcmitype/StillImage" />
        <dc:title></dc:title>
      </cc:Work>
    </rdf:RDF>
  </metadata>
  <g
     transform="translate(-340.17292,423.75833)"
     id="layer1">
    <g
       style="display:inline;opacity:0.5;stroke-width:0.66666669;enable-background:new"
       id="g15575"
       transform="matrix(1.5,0,0,1.5,934.17292,-541.3016)">
      <g
         id="g15577"
         style="display:inline;stroke-width:0.66666669"
         transform="matrix(2,0,0,2,-598,-475.63782)">
        <rect
           style="color:#bebebe;display:inline;overflow:visible;visibility:visible;fill:none;stroke:none;stroke-width:1.18733335;marker:none;enable-background:new"
           id="rect15579"
           y="277"
           x="101"
           height="16"
           width="16" />
        <path
           id="path15581"
           transform="matrix(0.33333333,0,0,0.33333333,101,277)"
           d="M 23.980469 5 C 13.519619 5 4.9804688 13.53912 4.9804688 24 C 4.9804688 34.46088 13.519619 43 23.980469 43 C 34.441349 43 42.980469 34.46088 42.980469 24 C 42.980469 13.53912 34.441349 5 23.980469 5 z M 23.980469 8.9804688 C 32.300309 8.9804688 39 15.68016 39 24 C 39 32.31987 32.300309 39.019531 23.980469 39.019531 C 15.660659 39.019531 8.9609375 32.31987 8.9609375 24 C 8.9609375 15.68016 15.660659 8.9804688 23.980469 8.9804688 z "
           style="color:#bebebe;font-style:normal;font-variant:normal;font-weight:normal;font-stretch:normal;font-size:medium;line-height:normal;font-family:Sans;-inkscape-font-specification:Sans;text-indent:0;text-align:start;text-decoration:none;text-decoration-line:none;letter-spacing:normal;word-spacing:normal;text-transform:none;writing-mode:lr-tb;direction:ltr;text-anchor:start;display:inline;overflow:visible;visibility:visible;fill:#c0bfbc;fill-opacity:1;stroke:none;stroke-width:2.9462719;marker:none;enable-background:new" />
      </g>
      <path
         transform="translate(-568,-133.63782)"
         id="path15583"
         d="m 178.875,220.875 4.125,2.375 -1.375,2.625 0.125,2.625 -1,-1.625 -2,0.75 3.125,2.75 -1,2.875 2,3.5 -6.625,-5.875 z"
         style="color:#000000;display:inline;overflow:visible;visibility:visible;opacity:0.52208832;fill:#c0bfbc;fill-opacity:1;fill-rule:nonzero;stroke:none;stroke-width:0.66666669;marker:none;enable-background:new" />
      <path
         transform="translate(-568,-133.63782)"
         id="path15585"
         d="m 188.125,227.5 -0.875,4.5 3.875,-0.375 0.375,4.375 c 0.80777,-0.70603 1.48851,-1.55695 2,-2.5 0.92375,-1.70312 1.28014,-3.70785 1,-5.625 z"
         style="color:#000000;display:inline;overflow:visible;visibility:visible;opacity:0.52208832;fill:#c0bfbc;fill-opacity:1;fill-rule:nonzero;stroke:none;stroke-width:0.66666669;marker:none;enable-background:new" />
      <path
         transform="translate(-568,-133.63782)"
         id="path15587"
         d="M 186.375,223.375 V 226 l 3.75,-0.25 0.125,-1.5 2.25,2.75 -0.875,-2.875 3.25,3.5 2,1.875 c 0.31605,-0.99267 0.60783,-1.99307 0.875,-3 0.32923,-1.24084 0.62107,-2.49159 0.875,-3.75 l -5.375,-4.25 -2.25,3.125 z"
         style="color:#000000;display:inline;overflow:visible;visibility:visible;opacity:0.52208832;fill:#c0bfbc;fill-opacity:1;fill-rule:nonzero;stroke:none;stroke-width:0.66666669;marker:none;enable-background:new" />
    </g>
  </g>
</svg>
