<svg height="48" width="48" xmlns="http://www.w3.org/2000/svg">
    <g style="display:inline;opacity:.5;stroke-width:.66666669;enable-background:new">
        <g style="display:inline;stroke-width:.66666669">
            <path style="color:#bebebe;display:inline;overflow:visible;visibility:visible;fill:none;stroke:none;stroke-width:1.18733335;marker:none;enable-background:new" d="M101 277h16v16h-16z" transform="matrix(3 0 0 3 -303 -831)"/>
            <path transform="rotate(.008)" d="M23.98 5c-10.46 0-19 8.54-19 19s8.54 19 19 19c10.461 0 19-8.54 19-19s-8.539-19-19-19zm0 3.98C32.3 8.98 39 15.68 39 24s-6.7 15.02-15.02 15.02S8.96 32.32 8.96 24s6.7-15.02 15.02-15.02z" style="color:#bebebe;font-style:normal;font-variant:normal;font-weight:400;font-stretch:normal;font-size:medium;line-height:normal;font-family:Sans;-inkscape-font-specification:Sans;text-indent:0;text-align:start;text-decoration:none;text-decoration-line:none;letter-spacing:normal;word-spacing:normal;text-transform:none;writing-mode:lr-tb;direction:ltr;text-anchor:start;display:inline;overflow:visible;visibility:visible;fill:#c0bfbc;fill-opacity:1;stroke:none;stroke-width:2.9462719;marker:none;enable-background:new"/>
        </g>
        <path style="color:#000;display:inline;overflow:visible;visibility:visible;opacity:.522088;fill:#c0bfbc;fill-opacity:1;fill-rule:nonzero;stroke:none;stroke-width:1;marker:none;enable-background:new" d="M31.875 9.75 28.5 14.438l-6.938 2.624V21l5.625-.375.188-2.25L30.75 22.5l-1.313-4.313 4.875 5.25 3 2.813a95.91 95.91 0 0 0 2.626-10.125L31.874 9.75zm-21.563 3.563-3.937 15 9.938 8.812-3-5.25 1.5-4.313-4.688-4.125 3-1.125 1.5 2.438-.188-3.938 2.063-3.937-6.188-3.563zm13.876 9.937L22.875 30l5.813-.563L29.25 36a13.614 13.614 0 0 0 3-3.75 13.69 13.69 0 0 0 1.5-8.438l-9.563-.562z"/>
    </g>
</svg>
