<svg xmlns="http://www.w3.org/2000/svg" xmlns:xlink="http://www.w3.org/1999/xlink" width="128" height="128"><defs><radialGradient id="aH" gradientUnits="userSpaceOnUse" cx="256" cy="-46.416" fx="256" fy="-46.416" r="224" gradientTransform="matrix(.29048 0 0 .29907 -10.777 55.175)"><stop offset="0" stop-color="#62a0ea"/><stop offset=".552" stop-color="#3584e4"/><stop offset="1" stop-color="#1a5fb4"/></radialGradient><clipPath id="aI"><path d="M3 5h121v121H3zm0 0"/></clipPath><clipPath id="aJ"><path d="M123.586 65.293c0 33.137-26.863 60-60 60s-60-26.863-60-60 26.863-60 60-60 60 26.863 60 60zm0 0"/></clipPath><filter id="a" filterUnits="objectBoundingBox" x="0%" y="0%" width="100%" height="100%"><feColorMatrix in="SourceGraphic" values="0 0 0 0 1 0 0 0 0 1 0 0 0 0 1 0 0 0 1 0"/></filter><mask id="aK"><g filter="url(#a)"><path fill-opacity=".2" d="M0 0h128v128H0z"/></g></mask><clipPath id="b"><path d="M0 0h192v152H0z"/></clipPath><g id="L" clip-path="url(#b)"><path d="M45.586 21.293v4l10 8v8l8 8h4v-4l6-6v-4l4-4v-10zm-4 16h-30s.508 40.441 0 40l20 18v-6l-4-4 6-6h4l4 4 .125-8.402 5.875-5.598h4v-4l4-4v-6l-4.273-3.875-9.727-.125v8h-4l-4-4v-4l6-6h6v-4zm60 2l-6 6v4h6v-2.145h4v4.27l-2 1.875h-10v4h-4v6h-8v8h10v-4h8v2l4 4h2v-2l-2-2v-2h4l6 6h6v2l-2 2h-4l18 18v-56zm12 38h-12l-2-2h-14l-8 8v8l8 8h6l4 4v2l2 2v12l14 14h8v-30l4-4v-8l-10-10zm-2-12h4l6 6h-4zm-74 28l-4 4v10l8.125 8.144-.125 25.856h8v-8l6-6v-4l6-6v-4l4-4v-8l-4-4h-8l-4-4zm0 0"/></g><clipPath id="aL"><path d="M3 5h121v121H3zm0 0"/></clipPath><clipPath id="aM"><path d="M123.586 65.293c0 33.137-26.863 60-60 60s-60-26.863-60-60 26.863-60 60-60 60 26.863 60 60zm0 0c0 33.137-26.863 60-60 60s-60-26.863-60-60 26.863-60 60-60 60 26.863 60 60zm0 0"/></clipPath><mask id="aN"><g filter="url(#a)"><path fill-opacity=".1" d="M0 0h128v128H0z"/></g></mask><clipPath id="c"><path d="M0 0h192v152H0z"/></clipPath><g id="P" clip-path="url(#c)"><path d="M107.586 115.293h12v20h-12zm0 0" fill="#fff"/></g><clipPath id="aO"><path d="M3 3h121v121H3zm0 0"/></clipPath><clipPath id="aP"><path d="M123.586 63.293c0 33.137-26.863 60-60 60s-60-26.863-60-60 26.863-60 60-60 60 26.863 60 60zm0 0"/></clipPath><radialGradient id="aQ" gradientUnits="userSpaceOnUse" cx="46.511" cy="236.83" fx="46.511" fy="236.83" r="224" gradientTransform="matrix(.29041 -.00079 .00067 .24464 49.921 -16.608)"><stop offset="0" stop-color="#cee2f8"/><stop offset=".552" stop-color="#98c1f1"/><stop offset="1" stop-color="#62a0ea"/></radialGradient><mask id="aR"><g filter="url(#a)"><path fill-opacity=".1" d="M0 0h128v128H0z"/></g></mask><clipPath id="d"><path d="M0 0h192v152H0z"/></clipPath><g id="U" clip-path="url(#d)"><path d="M85.586 97.293h6v2h-6zm0 0" fill="#fff"/></g><mask id="aS"><g filter="url(#a)"><path fill-opacity=".1" d="M0 0h128v128H0z"/></g></mask><clipPath id="e"><path d="M0 0h192v152H0z"/></clipPath><g id="W" clip-path="url(#e)"><path d="M33.586 77.293h4v2h-4zm0 0" fill="#fff"/></g><mask id="aT"><g filter="url(#a)"><path fill-opacity=".1" d="M0 0h128v128H0z"/></g></mask><clipPath id="f"><path d="M0 0h192v152H0z"/></clipPath><g id="Y" clip-path="url(#f)"><path d="M39.586 43.293h6v2h-6zm0 0" fill="#fff"/></g><mask id="aU"><g filter="url(#a)"><path fill-opacity=".1" d="M0 0h128v128H0z"/></g></mask><clipPath id="g"><path d="M0 0h192v152H0z"/></clipPath><g id="aa" clip-path="url(#g)"><path d="M47.586 67.293h4v2h-4zm0 0" fill="#fff"/></g><mask id="aV"><g filter="url(#a)"><path fill-opacity=".1" d="M0 0h128v128H0z"/></g></mask><clipPath id="h"><path d="M0 0h192v152H0z"/></clipPath><g id="ac" clip-path="url(#h)"><path d="M103.586 65.293h4v2h-4zm0 0" fill="#fff"/></g><mask id="aW"><g filter="url(#a)"><path fill-opacity=".1" d="M0 0h128v128H0z"/></g></mask><clipPath id="i"><path d="M0 0h192v152H0z"/></clipPath><g id="ae" clip-path="url(#i)"><path d="M103.586 71.293h2v2h-2zm0 0" fill="#fff"/></g><mask id="aX"><g filter="url(#a)"><path fill-opacity=".1" d="M0 0h128v128H0z"/></g></mask><clipPath id="j"><path d="M0 0h192v152H0z"/></clipPath><g id="ag" clip-path="url(#j)"><path d="M113.586 71.293h6v2h-6zm0 0" fill="#fff"/></g><mask id="aY"><g filter="url(#a)"><path fill-opacity=".1" d="M0 0h128v128H0z"/></g></mask><clipPath id="k"><path d="M0 0h192v152H0z"/></clipPath><g id="ai" clip-path="url(#k)"><path d="M101.586 45.148h4v2h-4zm0 0" fill="#fff"/></g><mask id="aZ"><g filter="url(#a)"><path fill-opacity=".1" d="M0 0h128v128H0z"/></g></mask><clipPath id="l"><path d="M0 0h192v152H0z"/></clipPath><g id="ak" clip-path="url(#l)"><path d="M63.586 47.293h4v2h-4zm0 0" fill="#fff"/></g><mask id="ba"><g filter="url(#a)"><path fill-opacity=".668" d="M0 0h128v128H0z"/></g></mask><clipPath id="m"><path d="M0 0h192v152H0z"/></clipPath><g id="am" clip-path="url(#m)"><path d="M66.8 66.254c0 6.617-5.363 11.98-11.98 11.98-6.613 0-11.977-5.363-11.977-11.98s5.364-11.98 11.977-11.98c6.617 0 11.98 5.363 11.98 11.98zm0 0" fill="none" stroke-width="5.59031928" stroke-linejoin="round" stroke="#fff"/></g><mask id="bb"><g filter="url(#a)"><path fill-opacity=".668" d="M0 0h128v128H0z"/></g></mask><clipPath id="n"><path d="M0 0h192v152H0z"/></clipPath><g id="ao" clip-path="url(#n)"><path d="M77.601 66.254c0 12.582-10.2 22.781-22.781 22.781-12.578 0-22.777-10.2-22.777-22.781 0-12.582 10.199-22.781 22.777-22.781 12.582 0 22.781 10.199 22.781 22.78zm0 0" fill="none" stroke-width="3.86196404" stroke-linejoin="round" stroke="#fff"/></g><mask id="bc"><g filter="url(#a)"><path fill-opacity=".668" d="M0 0h128v128H0z"/></g></mask><clipPath id="o"><path d="M0 0h192v152H0z"/></clipPath><g id="aq" clip-path="url(#o)"><path d="M88.878 66.254c0 18.808-15.246 34.058-34.058 34.058-18.809 0-34.059-15.25-34.059-34.058 0-18.813 15.25-34.059 34.059-34.059 18.812 0 34.058 15.246 34.058 34.059zm0 0" fill="none" stroke-width="1.9800286000000002" stroke-linejoin="round" stroke="#fff"/></g><mask id="bf"><g filter="url(#a)"><path fill-opacity=".3" d="M0 0h128v128H0z"/></g></mask><clipPath id="p"><path d="M0 0h192v152H0z"/></clipPath><g id="as" clip-path="url(#p)"><path d="M55.176 70.605L17.512 107.16a59.63 59.63 0 0 0 6.293 10.336l5.379.176-1.914 3.973a60.081 60.081 0 0 0 9.851 8.722l3.3-7.43 15.067 16.094c.13.031.258.067.387.098zm0 0" fill-rule="evenodd" fill="#12121c"/></g><radialGradient id="bg" gradientUnits="userSpaceOnUse" cx="17.814" cy="24.149" fx="17.814" fy="24.149" r="9.125" gradientTransform="matrix(7.42904 0 0 7.1212 -88.327 -114.956)"><stop offset="0" stop-color="#fff"/><stop offset="1" stop-color="#e4e4e4"/></radialGradient><clipPath id="bh"><path d="M79 0h49v128H79zm0 0"/></clipPath><clipPath id="bi"><path d="M479.988 20.078c0 110.453-89.543 200-200 200-110.453 0-200-89.547-200-200 0-110.457 89.547-200 200-200 110.457 0 200 89.543 200 200zm0 0"/></clipPath><mask id="bj"><g filter="url(#a)"><path fill-opacity=".5" d="M0 0h128v128H0z"/></g></mask><clipPath id="q"><path d="M0 0h192v152H0z"/></clipPath><g id="ax" clip-path="url(#q)"><path d="M169.336 19.172v3.531l.883.883.34.344.543-.543v-.684h.683l.2-.2v-.683l.882-.883h.684l.199-.199v-.683l-.883-.883zm8.113 0v1.765h1.598l.91 1.325v.441l.856.883v-4.414zm3.363 4.414l-.91.05-.855-.933v-.219h-1.078l-.442-.664h-.078v2.883l.301.43v1.762L179.047 28l.883-.883V24.47zm0 0" fill="#2e3436"/></g><radialGradient id="I" gradientUnits="userSpaceOnUse" cx="256" cy="-46.416" fx="256" fy="-46.416" r="224" gradientTransform="matrix(.29048 0 0 .29907 -10.777 55.175)"><stop offset="0" stop-color="#62a0ea"/><stop offset=".552" stop-color="#3584e4"/><stop offset="1" stop-color="#1a5fb4"/></radialGradient><clipPath id="J"><path d="M3 5h121v121H3zm0 0"/></clipPath><clipPath id="K"><path d="M123.586 65.293c0 33.137-26.863 60-60 60s-60-26.863-60-60 26.863-60 60-60 60 26.863 60 60zm0 0"/></clipPath><mask id="M"><g filter="url(#a)"><path fill-opacity=".2" d="M0 0h128v128H0z"/></g></mask><clipPath id="r"><path d="M0 0h192v152H0z"/></clipPath><clipPath id="N"><path d="M3 5h121v121H3zm0 0"/></clipPath><clipPath id="O"><path d="M123.586 65.293c0 33.137-26.863 60-60 60s-60-26.863-60-60 26.863-60 60-60 60 26.863 60 60zm0 0c0 33.137-26.863 60-60 60s-60-26.863-60-60 26.863-60 60-60 60 26.863 60 60zm0 0"/></clipPath><mask id="Q"><g filter="url(#a)"><path fill-opacity=".1" d="M0 0h128v128H0z"/></g></mask><clipPath id="s"><path d="M0 0h192v152H0z"/></clipPath><clipPath id="R"><path d="M3 3h121v121H3zm0 0"/></clipPath><clipPath id="S"><path d="M123.586 63.293c0 33.137-26.863 60-60 60s-60-26.863-60-60 26.863-60 60-60 60 26.863 60 60zm0 0"/></clipPath><radialGradient id="T" gradientUnits="userSpaceOnUse" cx="46.511" cy="236.83" fx="46.511" fy="236.83" r="224" gradientTransform="matrix(.29041 -.00079 .00067 .24464 49.921 -16.608)"><stop offset="0" stop-color="#cee2f8"/><stop offset=".552" stop-color="#98c1f1"/><stop offset="1" stop-color="#62a0ea"/></radialGradient><mask id="V"><g filter="url(#a)"><path fill-opacity=".1" d="M0 0h128v128H0z"/></g></mask><clipPath id="t"><path d="M0 0h192v152H0z"/></clipPath><mask id="X"><g filter="url(#a)"><path fill-opacity=".1" d="M0 0h128v128H0z"/></g></mask><clipPath id="u"><path d="M0 0h192v152H0z"/></clipPath><mask id="Z"><g filter="url(#a)"><path fill-opacity=".1" d="M0 0h128v128H0z"/></g></mask><clipPath id="v"><path d="M0 0h192v152H0z"/></clipPath><mask id="ab"><g filter="url(#a)"><path fill-opacity=".1" d="M0 0h128v128H0z"/></g></mask><clipPath id="w"><path d="M0 0h192v152H0z"/></clipPath><mask id="ad"><g filter="url(#a)"><path fill-opacity=".1" d="M0 0h128v128H0z"/></g></mask><clipPath id="x"><path d="M0 0h192v152H0z"/></clipPath><mask id="af"><g filter="url(#a)"><path fill-opacity=".1" d="M0 0h128v128H0z"/></g></mask><clipPath id="y"><path d="M0 0h192v152H0z"/></clipPath><mask id="ah"><g filter="url(#a)"><path fill-opacity=".1" d="M0 0h128v128H0z"/></g></mask><clipPath id="z"><path d="M0 0h192v152H0z"/></clipPath><mask id="aj"><g filter="url(#a)"><path fill-opacity=".1" d="M0 0h128v128H0z"/></g></mask><clipPath id="A"><path d="M0 0h192v152H0z"/></clipPath><mask id="al"><g filter="url(#a)"><path fill-opacity=".1" d="M0 0h128v128H0z"/></g></mask><clipPath id="B"><path d="M0 0h192v152H0z"/></clipPath><mask id="an"><g filter="url(#a)"><path fill-opacity=".668" d="M0 0h128v128H0z"/></g></mask><clipPath id="C"><path d="M0 0h192v152H0z"/></clipPath><mask id="ap"><g filter="url(#a)"><path fill-opacity=".668" d="M0 0h128v128H0z"/></g></mask><clipPath id="D"><path d="M0 0h192v152H0z"/></clipPath><mask id="ar"><g filter="url(#a)"><path fill-opacity=".668" d="M0 0h128v128H0z"/></g></mask><clipPath id="E"><path d="M0 0h192v152H0z"/></clipPath><mask id="at"><g filter="url(#a)"><path fill-opacity=".3" d="M0 0h128v128H0z"/></g></mask><clipPath id="F"><path d="M0 0h192v152H0z"/></clipPath><radialGradient id="au" gradientUnits="userSpaceOnUse" cx="17.814" cy="24.149" fx="17.814" fy="24.149" r="9.125" gradientTransform="matrix(7.42904 0 0 7.1212 -88.327 -114.956)"><stop offset="0" stop-color="#fff"/><stop offset="1" stop-color="#e4e4e4"/></radialGradient><clipPath id="av"><path d="M79 0h49v128H79zm0 0"/></clipPath><clipPath id="aw"><path d="M479.988 20.078c0 110.453-89.543 200-200 200-110.453 0-200-89.547-200-200 0-110.457 89.547-200 200-200 110.457 0 200 89.543 200 200zm0 0"/></clipPath><mask id="ay"><g filter="url(#a)"><path fill-opacity=".5" d="M0 0h128v128H0z"/></g></mask><clipPath id="G"><path d="M0 0h192v152H0z"/></clipPath><clipPath id="H"><path d="M0 0h128v128H0z"/></clipPath><g id="aA" clip-path="url(#H)"><path d="M39.11 8.512v2l4.011-.16.09-1.997zm0 0" fill-rule="evenodd" fill="#2967b4"/><path d="M3.71 59.41v2l4.013-.16.09-1.996zm0 0" fill-rule="evenodd" fill="#164e93"/><path d="M123.586 65.293c0 33.137-26.863 60-60 60s-60-26.863-60-60 26.863-60 60-60 60 26.863 60 60zm0 0" fill="url(#I)"/><g clip-path="url(#J)"><g clip-path="url(#K)"><use xlink:href="#L" transform="translate(-8 -16)" mask="url(#M)"/></g></g><g clip-path="url(#N)"><g clip-path="url(#O)"><use xlink:href="#P" transform="translate(-8 -16)" mask="url(#Q)"/></g></g><path d="M105.586 59.293v2h4v-2zm0 0" fill-rule="evenodd" fill="#144788"/><g clip-path="url(#R)"><g clip-path="url(#S)"><path d="M37.586 3.293v4l10 8v8l8 8h4v-4l6-6v-4l4-4v-10zm-4 16h-30s.508 40.441 0 40l20 18v-6l-4-4 6-6h4l4 4 .125-8.402 5.875-5.598h4v-4l4-4v-6l-4.273-3.875-9.727-.125v8h-4l-4-4v-4l6-6h6v-4zm60 2l-6 6v4h6v-2.145h4v4.27l-2 1.875h-10v4h-4v6h-8v8h10v-4h8v2l4 4h2v-2l-2-2v-2h4l6 6h6v2l-2 2h-4l18 18v-56zm12 38h-12l-2-2h-14l-8 8v8l8 8h6l4 4v2l2 2v12l14 14h8v-30l4-4v-8l-10-10zm-2-12h4l6 6h-4zm-74 28l-4 4v10l8.125 8.144-.125 25.856h8v-8l6-6v-4l6-6v-4l4-4v-8l-4-4h-8l-4-4zm0 0" fill="url(#T)"/></g></g><use xlink:href="#U" transform="translate(-8 -16)" mask="url(#V)"/><use xlink:href="#W" transform="translate(-8 -16)" mask="url(#X)"/><use xlink:href="#Y" transform="translate(-8 -16)" mask="url(#Z)"/><use xlink:href="#aa" transform="translate(-8 -16)" mask="url(#ab)"/><use xlink:href="#ac" transform="translate(-8 -16)" mask="url(#ad)"/><use xlink:href="#ae" transform="translate(-8 -16)" mask="url(#af)"/><use xlink:href="#ag" transform="translate(-8 -16)" mask="url(#ah)"/><use xlink:href="#ai" transform="translate(-8 -16)" mask="url(#aj)"/><use xlink:href="#ak" transform="translate(-8 -16)" mask="url(#al)"/><use xlink:href="#am" transform="translate(-8 -16)" mask="url(#an)"/><use xlink:href="#ao" transform="translate(-8 -16)" mask="url(#ap)"/><use xlink:href="#aq" transform="translate(-8 -16)" mask="url(#ar)"/><use xlink:href="#as" transform="translate(-8 -16)" mask="url(#at)"/><path d="M47.176 50.605L-.59 96.97l21.774.703-9.13 18.965c-2.812 8.43 9.833 11.59 11.942 5.27l8.43-18.97 15.453 16.508zm0 0" fill-rule="evenodd" fill="url(#au)"/><path d="M47.176 50.605l-.246.239-31.16 73.781c3.148 1.277 7.12.586 8.222-2.719l8.43-18.969 15.457 16.508zm0 0" fill-rule="evenodd" fill="#e4e6e8"/><g clip-path="url(#av)"><g clip-path="url(#aw)"><use xlink:href="#ax" transform="translate(-8 -16)" mask="url(#ay)"/></g></g></g><clipPath id="az"><path d="M0 0h128v128H0z"/></clipPath><g id="aB" clip-path="url(#az)" filter="url(#a)"><use xlink:href="#aA"/></g><mask id="bd"><use xlink:href="#aB"/></mask><mask id="aG"><g filter="url(#a)"><path fill-opacity=".8" d="M0 0h128v128H0z"/></g></mask><linearGradient id="aD" gradientUnits="userSpaceOnUse" x1="300" y1="235" x2="428" y2="235" gradientTransform="matrix(0 .37 -.98462 0 295.385 -30.36)"><stop offset="0" stop-color="#f9f06b"/><stop offset="1" stop-color="#f5c211"/></linearGradient><clipPath id="aC"><path d="M0 0h128v128H0z"/></clipPath><g id="aF" clip-path="url(#aC)"><path d="M128 80.64V128H0V80.64zm0 0" fill="url(#aD)"/><path d="M13.309 80.64L60.664 128H81.88l-47.36-47.36zm42.421 0L103.094 128h21.215L76.945 80.64zm42.43 0L128 110.48V89.27l-8.629-8.63zM0 88.548v21.215L18.238 128h21.215zm0 0"/></g><clipPath id="aE"><path d="M0 0h128v128H0z"/></clipPath><g id="be" clip-path="url(#aE)"><use xlink:href="#aF" mask="url(#aG)"/></g></defs><path d="M39.11 8.512v2l4.011-.16.09-1.997zm0 0" fill="#2866b3" fill-rule="evenodd"/><path d="M3.71 59.41v2l4.013-.16.09-1.996zm0 0" fill="#144c91" fill-rule="evenodd"/><path d="M123.586 65.293c0 33.137-26.863 60-60 60s-60-26.863-60-60 26.863-60 60-60 60 26.863 60 60zm0 0" fill="url(#aH)"/><g clip-path="url(#aI)"><g clip-path="url(#aJ)"><use height="100%" width="100%" mask="url(#aK)" transform="translate(-8 -16)" xlink:href="#L"/></g></g><g clip-path="url(#aL)"><g clip-path="url(#aM)"><use height="100%" width="100%" mask="url(#aN)" transform="translate(-8 -16)" xlink:href="#P"/></g></g><path d="M105.586 59.293v2h4v-2zm0 0" fill="#114587" fill-rule="evenodd"/><g clip-path="url(#aO)"><g clip-path="url(#aP)"><path d="M37.586 3.293v4l10 8v8l8 8h4v-4l6-6v-4l4-4v-10zm-4 16h-30s.508 40.441 0 40l20 18v-6l-4-4 6-6h4l4 4 .125-8.402 5.875-5.598h4v-4l4-4v-6l-4.273-3.875-9.727-.125v8h-4l-4-4v-4l6-6h6v-4zm60 2l-6 6v4h6v-2.145h4v4.27l-2 1.875h-10v4h-4v6h-8v8h10v-4h8v2l4 4h2v-2l-2-2v-2h4l6 6h6v2l-2 2h-4l18 18v-56zm12 38h-12l-2-2h-14l-8 8v8l8 8h6l4 4v2l2 2v12l14 14h8v-30l4-4v-8l-10-10zm-2-12h4l6 6h-4zm-74 28l-4 4v10l8.125 8.144-.125 25.856h8v-8l6-6v-4l6-6v-4l4-4v-8l-4-4h-8l-4-4zm0 0" fill="url(#aQ)"/></g></g><use height="100%" width="100%" mask="url(#aR)" transform="translate(-8 -16)" xlink:href="#U"/><use height="100%" width="100%" mask="url(#aS)" transform="translate(-8 -16)" xlink:href="#W"/><use height="100%" width="100%" mask="url(#aT)" transform="translate(-8 -16)" xlink:href="#Y"/><use height="100%" width="100%" mask="url(#aU)" transform="translate(-8 -16)" xlink:href="#aa"/><use height="100%" width="100%" mask="url(#aV)" transform="translate(-8 -16)" xlink:href="#ac"/><use height="100%" width="100%" mask="url(#aW)" transform="translate(-8 -16)" xlink:href="#ae"/><use height="100%" width="100%" mask="url(#aX)" transform="translate(-8 -16)" xlink:href="#ag"/><use height="100%" width="100%" mask="url(#aY)" transform="translate(-8 -16)" xlink:href="#ai"/><use height="100%" width="100%" mask="url(#aZ)" transform="translate(-8 -16)" xlink:href="#ak"/><use height="100%" width="100%" mask="url(#ba)" transform="translate(-8 -16)" xlink:href="#am"/><use height="100%" width="100%" mask="url(#bb)" transform="translate(-8 -16)" xlink:href="#ao"/><use height="100%" width="100%" mask="url(#bc)" transform="translate(-8 -16)" xlink:href="#aq"/><use height="100%" width="100%" mask="url(#bd)" xlink:href="#be"/><use height="100%" width="100%" mask="url(#bf)" transform="translate(-8 -16)" xlink:href="#as"/><g fill-rule="evenodd"><path d="M47.176 50.605L.9 95.922l-.008 2.019 19.809.574-8.647 18.122c-2.813 8.43 9.832 11.59 11.941 5.27l8.43-18.97 15.453 16.508z" fill="url(#bg)" transform="matrix(1.0379 0 0 1.0379 -.896 -4.393)"/><path d="M48.068 48.13l-.256.248-32.34 76.577c3.267 1.326 7.39.608 8.533-2.822l8.75-19.687 16.042 17.133zm0 0" fill="#e3e6e6"/></g><g clip-path="url(#bh)"><g clip-path="url(#bi)"><use height="100%" width="100%" mask="url(#bj)" transform="translate(-8 -16)" xlink:href="#ax"/></g></g></svg>