<?xml version="1.0" encoding="UTF-8"?>
<svg height="128px" viewBox="0 0 128 128" width="128px" xmlns="http://www.w3.org/2000/svg" xmlns:xlink="http://www.w3.org/1999/xlink">
    <defs>
        <linearGradient id="a" gradientTransform="matrix(0 -1 1 0 -157 121)" gradientUnits="userSpaceOnUse" x1="0.999999" x2="0.999999" y1="215" y2="171">
            <stop offset="0" stop-color="#1d6bb6"/>
            <stop offset="1" stop-color="#b7d952"/>
        </linearGradient>
        <filter id="b" height="100%" width="100%" x="0%" y="0%">
            <feColorMatrix in="SourceGraphic" type="matrix" values="0 0 0 0 1 0 0 0 0 1 0 0 0 0 1 0 0 0 1 0"/>
        </filter>
        <mask id="c">
            <g filter="url(#b)">
                <rect fill-opacity="0.5" height="128" width="128"/>
            </g>
        </mask>
        <mask id="d">
            <g filter="url(#b)">
                <rect fill-opacity="0.5" height="128" width="128"/>
            </g>
        </mask>
        <mask id="e">
            <g filter="url(#b)">
                <rect fill-opacity="0.5" height="128" width="128"/>
            </g>
        </mask>
        <mask id="f">
            <g filter="url(#b)">
                <rect fill-opacity="0.5" height="128" width="128"/>
            </g>
        </mask>
        <clipPath id="g">
            <rect height="152" width="192"/>
        </clipPath>
        <g id="h" clip-path="url(#g)">
            <path d="m 169.5 24 v 1 h 13 v -1 z m 0 0" fill="#2e3436"/>
        </g>
        <mask id="i">
            <g filter="url(#b)">
                <rect fill-opacity="0.5" height="128" width="128"/>
            </g>
        </mask>
        <clipPath id="j">
            <rect height="152" width="192"/>
        </clipPath>
        <g id="k" clip-path="url(#j)">
            <path d="m 169.5 21 v 1 h 13 v -1 z m 0 0" fill="#2e3436"/>
        </g>
        <mask id="l">
            <g filter="url(#b)">
                <rect fill-opacity="0.5" height="128" width="128"/>
            </g>
        </mask>
        <clipPath id="m">
            <rect height="152" width="192"/>
        </clipPath>
        <g id="n" clip-path="url(#m)">
            <path d="m 169.5 27 v 1 h 13 v -1 z m 0 0" fill="#2e3436"/>
        </g>
        <clipPath id="o">
            <rect height="128" width="128"/>
        </clipPath>
        <clipPath id="p">
            <rect height="128" width="128"/>
        </clipPath>
        <mask id="q">
            <g clip-path="url(#p)" filter="url(#b)">
                <g clip-path="url(#o)">
                    <path d="m 64 5 c 33.136719 0 60 26.863281 60 60 s -26.863281 60 -60 60 s -60 -26.863281 -60 -60 s 26.863281 -60 60 -60 z m 0 0" fill="#1d6bb6"/>
                    <path d="m 64 5 c -33.136719 0 -60 26.863281 -60 60 s 26.863281 60 60 60 z m 0 0" fill="url(#a)"/>
                    <path d="m 124 63 c 0 33.136719 -26.863281 60 -60 60 s -60 -26.863281 -60 -60 s 26.863281 -60 60 -60 s 60 26.863281 60 60 z m 0 0" fill="#93dd66"/>
                    <path d="m 28.003906 64 c 0.125 13.914062 2.882813 27.367188 7.835938 38.25 c -3.941406 2.015625 -7.28125 4.441406 -9.863282 7.160156 c -13.640624 -11.171875 -21.675781 -27.78125 -21.96875 -45.410156 z m 0 0" fill="#bcd94f"/>
                    <path d="m 64 96 v 27 c -4.5 0 -8.988281 -0.507812 -13.375 -1.511719 c -5.800781 -4.058593 -10.894531 -10.691406 -14.78125 -19.238281 c 7.902344 -4.039062 17.867188 -6.25 28.15625 -6.25 z m 0 0" fill="#4aca9a"/>
                    <path d="m 99.996094 64 c -0.125 13.914062 -2.882813 27.367188 -7.839844 38.25 c 3.945312 2.015625 7.28125 4.441406 9.863281 7.160156 c 13.640625 -11.171875 21.675781 -27.78125 21.972657 -45.410156 z m 0 0" fill="#34a0b7"/>
                    <path d="m 64 64 v 59 c 4.5 0 8.988281 -0.507812 13.375 -1.511719 c 13.472656 -9.433593 22.390625 -32.097656 22.621094 -57.488281 z m 0 0" fill="#4aca9a"/>
                    <path d="m 64 96 v 27 c 4.5 0 8.988281 -0.507812 13.375 -1.511719 c 5.800781 -4.058593 10.894531 -10.691406 14.78125 -19.238281 c -7.902344 -4.039062 -17.867188 -6.25 -28.15625 -6.25 z m 0 0" fill="#34a0b7"/>
                    <path d="m 92.160156 102.25 c -3.890625 8.546875 -8.984375 15.175781 -14.78125 19.238281 c 9.035156 -2.066406 17.472656 -6.203125 24.644532 -12.078125 c -2.582032 -2.71875 -5.921876 -5.144531 -9.863282 -7.160156 z m 0 0" fill="#2481cd"/>
                    <path d="m 64 3 c -33.136719 0 -60 26.863281 -60 60 c 0 0.332031 0.003906 0.667969 0.007812 1 h 59.992188 z m 0 0" fill="#f6d32d"/>
                    <path d="m 50.625 4.507812 c -9.039062 2.070313 -17.476562 6.203126 -24.648438 12.078126 c 2.582032 2.722656 5.921876 5.144531 9.867188 7.164062 c 3.890625 -8.550781 8.984375 -15.179688 14.78125 -19.242188 z m 0 0" fill="#f9ef6a"/>
                    <path d="m 64 3 c -4.5 0 -8.984375 0.507812 -13.375 1.507812 c -13.664062 9.570313 -22.625 32.734376 -22.625 58.492188 c 0 0.332031 0 0.667969 0.003906 1 h 35.996094 z m 0 0" fill="#bcd94f"/>
                    <path d="m 64 3 c -4.5 0 -8.984375 0.507812 -13.375 1.507812 c -5.796875 4.0625 -10.890625 10.691407 -14.78125 19.242188 c 7.90625 4.039062 17.867188 6.25 28.15625 6.25 z m 0 0" fill="#f6d32d"/>
                    <path d="m 64 3 c 33.136719 0 60 26.863281 60 60 c 0 0.332031 -0.003906 0.667969 -0.007812 1 h -59.992188 z m 0 0" fill="#4aca9a"/>
                    <path d="m 77.375 4.507812 c 9.039062 2.070313 17.476562 6.203126 24.648438 12.078126 c -2.582032 2.722656 -5.921876 5.144531 -9.863282 7.160156 c -3.894531 -8.546875 -8.988281 -15.175782 -14.785156 -19.238282 z m 0 0" fill="#93dd66"/>
                    <path d="m 64 3 c 4.5 0 8.988281 0.507812 13.375 1.507812 c 13.664062 9.570313 22.625 32.734376 22.625 58.492188 c 0 0.332031 0 0.667969 -0.003906 1 h -35.996094 z m 0 0" fill="#93dd66"/>
                    <path d="m 64 3 c 4.5 0 8.988281 0.507812 13.375 1.507812 c 5.796875 4.0625 10.890625 10.691407 14.78125 19.238282 c -7.90625 4.042968 -17.867188 6.253906 -28.15625 6.253906 z m 0 0" fill="#bcd94f"/>
                    <use mask="url(#f)" transform="matrix(1 0 0 1 -8 -16)" xlink:href="#h"/>
                    <use mask="url(#i)" transform="matrix(1 0 0 1 -8 -16)" xlink:href="#k"/>
                    <use mask="url(#l)" transform="matrix(1 0 0 1 -8 -16)" xlink:href="#n"/>
                </g>
            </g>
        </mask>
        <mask id="r">
            <g filter="url(#b)">
                <rect fill-opacity="0.8" height="128" width="128"/>
            </g>
        </mask>
        <linearGradient id="s" gradientTransform="matrix(0 0.37 -0.98462 0 295.38501 -30.360001)" gradientUnits="userSpaceOnUse" x1="300" x2="428" y1="235" y2="235">
            <stop offset="0" stop-color="#f9f06b"/>
            <stop offset="1" stop-color="#f5c211"/>
        </linearGradient>
        <clipPath id="t">
            <rect height="128" width="128"/>
        </clipPath>
        <clipPath id="u">
            <rect height="128" width="128"/>
        </clipPath>
    </defs>
    <path d="m 64 5 c 33.136719 0 60 26.863281 60 60 s -26.863281 60 -60 60 s -60 -26.863281 -60 -60 s 26.863281 -60 60 -60 z m 0 0" fill="#1d6bb6"/>
    <path d="m 64 5 c -33.136719 0 -60 26.863281 -60 60 s 26.863281 60 60 60 z m 0 0" fill="url(#a)"/>
    <path d="m 124 63 c 0 33.136719 -26.863281 60 -60 60 s -60 -26.863281 -60 -60 s 26.863281 -60 60 -60 s 60 26.863281 60 60 z m 0 0" fill="#93dd66"/>
    <path d="m 28.003906 64 c 0.125 13.914062 2.882813 27.367188 7.835938 38.25 c -3.941406 2.015625 -7.28125 4.441406 -9.863282 7.160156 c -13.640624 -11.171875 -21.675781 -27.78125 -21.96875 -45.410156 z m 0 0" fill="#bcd94f"/>
    <path d="m 64 96 v 27 c -4.5 0 -8.988281 -0.507812 -13.375 -1.511719 c -5.800781 -4.058593 -10.894531 -10.691406 -14.78125 -19.238281 c 7.902344 -4.039062 17.867188 -6.25 28.15625 -6.25 z m 0 0" fill="#4aca9a"/>
    <path d="m 99.996094 64 c -0.125 13.914062 -2.882813 27.367188 -7.839844 38.25 c 3.945312 2.015625 7.28125 4.441406 9.863281 7.160156 c 13.640625 -11.171875 21.675781 -27.78125 21.972657 -45.410156 z m 0 0" fill="#34a0b7"/>
    <path d="m 64 64 v 59 c 4.5 0 8.988281 -0.507812 13.375 -1.511719 c 13.472656 -9.433593 22.390625 -32.097656 22.621094 -57.488281 z m 0 0" fill="#4aca9a"/>
    <path d="m 64 96 v 27 c 4.5 0 8.988281 -0.507812 13.375 -1.511719 c 5.800781 -4.058593 10.894531 -10.691406 14.78125 -19.238281 c -7.902344 -4.039062 -17.867188 -6.25 -28.15625 -6.25 z m 0 0" fill="#34a0b7"/>
    <path d="m 92.160156 102.25 c -3.890625 8.546875 -8.984375 15.175781 -14.78125 19.238281 c 9.035156 -2.066406 17.472656 -6.203125 24.644532 -12.078125 c -2.582032 -2.71875 -5.921876 -5.144531 -9.863282 -7.160156 z m 0 0" fill="#2481cd"/>
    <path d="m 64 3 c -33.136719 0 -60 26.863281 -60 60 c 0 0.332031 0.003906 0.667969 0.007812 1 h 59.992188 z m 0 0" fill="#f6d32d"/>
    <path d="m 50.625 4.507812 c -9.039062 2.070313 -17.476562 6.203126 -24.648438 12.078126 c 2.582032 2.722656 5.921876 5.144531 9.867188 7.164062 c 3.890625 -8.550781 8.984375 -15.179688 14.78125 -19.242188 z m 0 0" fill="#f9ef6a"/>
    <path d="m 64 3 c -4.5 0 -8.984375 0.507812 -13.375 1.507812 c -13.664062 9.570313 -22.625 32.734376 -22.625 58.492188 c 0 0.332031 0 0.667969 0.003906 1 h 35.996094 z m 0 0" fill="#bcd94f"/>
    <path d="m 64 3 c -4.5 0 -8.984375 0.507812 -13.375 1.507812 c -5.796875 4.0625 -10.890625 10.691407 -14.78125 19.242188 c 7.90625 4.039062 17.867188 6.25 28.15625 6.25 z m 0 0" fill="#f6d32d"/>
    <path d="m 64 3 c 33.136719 0 60 26.863281 60 60 c 0 0.332031 -0.003906 0.667969 -0.007812 1 h -59.992188 z m 0 0" fill="#4aca9a"/>
    <path d="m 77.375 4.507812 c 9.039062 2.070313 17.476562 6.203126 24.648438 12.078126 c -2.582032 2.722656 -5.921876 5.144531 -9.863282 7.160156 c -3.894531 -8.546875 -8.988281 -15.175782 -14.785156 -19.238282 z m 0 0" fill="#93dd66"/>
    <path d="m 64 3 c 4.5 0 8.988281 0.507812 13.375 1.507812 c 13.664062 9.570313 22.625 32.734376 22.625 58.492188 c 0 0.332031 0 0.667969 -0.003906 1 h -35.996094 z m 0 0" fill="#93dd66"/>
    <path d="m 64 3 c 4.5 0 8.988281 0.507812 13.375 1.507812 c 5.796875 4.0625 10.890625 10.691407 14.78125 19.238282 c -7.90625 4.042968 -17.867188 6.253906 -28.15625 6.253906 z m 0 0" fill="#bcd94f"/>
    <use mask="url(#c)" transform="matrix(1 0 0 1 -8 -16)" xlink:href="#h"/>
    <use mask="url(#d)" transform="matrix(1 0 0 1 -8 -16)" xlink:href="#k"/>
    <use mask="url(#e)" transform="matrix(1 0 0 1 -8 -16)" xlink:href="#n"/>
    <g clip-path="url(#u)" mask="url(#q)">
        <g clip-path="url(#t)" mask="url(#r)">
            <path d="m 128 80.640625 v 47.359375 h -128 v -47.359375 z m 0 0" fill="url(#s)"/>
            <path d="m 13.308594 80.640625 l 47.355468 47.359375 h 21.214844 l -47.359375 -47.359375 z m 42.421875 0 l 47.363281 47.359375 h 21.214844 l -47.363282 -47.359375 z m 42.429687 0 l 29.839844 29.839844 v -21.210938 l -8.628906 -8.628906 z m -98.160156 7.90625 v 21.214844 l 18.238281 18.238281 h 21.214844 z m 0 0"/>
        </g>
    </g>
</svg>
