<svg xmlns="http://www.w3.org/2000/svg" xmlns:xlink="http://www.w3.org/1999/xlink" height="128" width="128"><defs><mask id="T"><g filter="url(#a)"><path d="M0 0h128v128H0z" fill-opacity=".1"/></g></mask><mask id="au"><g filter="url(#a)"><path d="M0 0h128v128H0z" fill-opacity=".1"/></g></mask><mask id="aF"><use xlink:href="#b"/></mask><mask id="F"><g filter="url(#a)"><path d="M0 0h128v128H0z" fill-opacity=".1"/></g></mask><mask id="as"><g filter="url(#a)"><path d="M0 0h128v128H0z" fill-opacity=".1"/></g></mask><mask id="H"><g filter="url(#a)"><path d="M0 0h128v128H0z" fill-opacity=".1"/></g></mask><mask id="ay"><g filter="url(#a)"><path d="M0 0h128v128H0z" fill-opacity=".668"/></g></mask><mask id="J"><g filter="url(#a)"><path d="M0 0h128v128H0z" fill-opacity=".1"/></g></mask><mask id="aE"><g filter="url(#a)"><path d="M0 0h128v128H0z" fill-opacity=".5"/></g></mask><mask id="L"><g filter="url(#a)"><path d="M0 0h128v128H0z" fill-opacity=".1"/></g></mask><mask id="az"><g filter="url(#a)"><path d="M0 0h128v128H0z" fill-opacity=".668"/></g></mask><mask id="N"><g filter="url(#a)"><path d="M0 0h128v128H0z" fill-opacity=".1"/></g></mask><mask id="at"><g filter="url(#a)"><path d="M0 0h128v128H0z" fill-opacity=".1"/></g></mask><mask id="P"><g filter="url(#a)"><path d="M0 0h128v128H0z" fill-opacity=".1"/></g></mask><mask id="aA"><g filter="url(#a)"><path d="M0 0h128v128H0z" fill-opacity=".668"/></g></mask><mask id="R"><g filter="url(#a)"><path d="M0 0h128v128H0z" fill-opacity=".1"/></g></mask><mask id="aq"><g filter="url(#a)"><path d="M0 0h128v128H0z" fill-opacity=".1"/></g></mask><mask id="ax"><g filter="url(#a)"><path d="M0 0h128v128H0z" fill-opacity=".1"/></g></mask><mask id="aB"><g filter="url(#a)"><path d="M0 0h128v128H0z" fill-opacity=".3"/></g></mask><mask id="V"><g filter="url(#a)"><path d="M0 0h128v128H0z" fill-opacity=".1"/></g></mask><mask id="X"><g filter="url(#a)"><path d="M0 0h128v128H0z" fill-opacity=".668"/></g></mask><mask id="an"><g filter="url(#a)"><path d="M0 0h128v128H0z" fill-opacity=".2"/></g></mask><mask id="Z"><g filter="url(#a)"><path d="M0 0h128v128H0z" fill-opacity=".668"/></g></mask><mask id="av"><g filter="url(#a)"><path d="M0 0h128v128H0z" fill-opacity=".1"/></g></mask><mask id="ab"><g filter="url(#a)"><path d="M0 0h128v128H0z" fill-opacity=".668"/></g></mask><mask id="ar"><g filter="url(#a)"><path d="M0 0h128v128H0z" fill-opacity=".1"/></g></mask><mask id="ad"><g filter="url(#a)"><path d="M0 0h128v128H0z" fill-opacity=".3"/></g></mask><mask id="aw"><g filter="url(#a)"><path d="M0 0h128v128H0z" fill-opacity=".1"/></g></mask><mask id="f"><g filter="url(#a)"><path d="M0 0h128v128H0z" fill-opacity=".8"/></g></mask><mask id="am"><g filter="url(#a)"><path d="M0 0h128v128H0z" fill-opacity=".1"/></g></mask><mask id="ai"><g filter="url(#a)"><path d="M0 0h128v128H0z" fill-opacity=".5"/></g></mask><mask id="ap"><g filter="url(#a)"><path d="M0 0h128v128H0z" fill-opacity=".1"/></g></mask><mask id="C"><g filter="url(#a)"><path d="M0 0h128v128H0z" fill-opacity=".2"/></g></mask><mask id="A"><g filter="url(#a)"><path d="M0 0h128v128H0z" fill-opacity=".1"/></g></mask><clipPath id="q"><path d="M0 0h192v152H0z"/></clipPath><clipPath id="v"><path d="M0 0h192v152H0z"/></clipPath><clipPath id="c"><path d="M0 0h192v152H0z"/></clipPath><clipPath id="h"><path d="M0 0h192v152H0z"/></clipPath><clipPath id="k"><path d="M0 0h192v152H0z"/></clipPath><clipPath id="n"><path d="M0 0h192v152H0z"/></clipPath><clipPath id="aC"><path d="M79 0h49v128H79zm0 0"/></clipPath><clipPath id="aD"><path d="M479.988 20.078c0 110.453-89.543 200-200 200-110.453 0-200-89.547-200-200 0-110.457 89.547-200 200-200 110.457 0 200 89.543 200 200zm0 0"/></clipPath><clipPath id="o"><path d="M0 0h128v128H0z"/></clipPath><clipPath id="r"><path d="M0 0h128v128H0z"/></clipPath><clipPath id="i"><path d="M0 0h192v152H0z"/></clipPath><clipPath id="ag"><path d="M79 0h49v128H79zm0 0"/></clipPath><clipPath id="ah"><path d="M479.988 20.078c0 110.453-89.543 200-200 200-110.453 0-200-89.547-200-200 0-110.457 89.547-200 200-200 110.457 0 200 89.543 200 200zm0 0"/></clipPath><clipPath id="y"><path d="M0 0h128v128H0z"/></clipPath><clipPath id="w"><path d="M0 0h192v152H0z"/></clipPath><clipPath id="t"><path d="M0 0h192v152H0z"/></clipPath><clipPath id="e"><path d="M0 0h128v128H0z"/></clipPath><clipPath id="x"><path d="M0 0h192v152H0z"/></clipPath><clipPath id="m"><path d="M0 0h192v152H0z"/></clipPath><clipPath id="ak"><path d="M0 0h192v152H0z"/></clipPath><clipPath id="l"><path d="M0 0h192v152H0z"/></clipPath><clipPath id="u"><path d="M0 0h192v152H0z"/></clipPath><clipPath id="d"><path d="M0 0h192v152H0z"/></clipPath><clipPath id="j"><path d="M0 0h192v152H0z"/></clipPath><g clip-path="url(#u)" id="O"><path fill="#fff" d="M103.586 65.293h4v2h-4zm0 0"/></g><g clip-path="url(#c)" id="Y"><path stroke="#fff" stroke-linejoin="round" stroke-width="5.59" fill="none" d="M66.8 66.254c0 6.617-5.362 11.98-11.98 11.98-6.613 0-11.976-5.363-11.976-11.98s5.363-11.98 11.976-11.98c6.617 0 11.98 5.363 11.98 11.98zm0 0"/></g><g clip-path="url(#e)" id="aG"><use mask="url(#f)" xlink:href="#g"/></g><g clip-path="url(#h)" id="aa"><path stroke="#fff" stroke-linejoin="round" stroke-width="3.862" fill="none" d="M77.602 66.254c0 12.582-10.2 22.781-22.782 22.781-12.578 0-22.777-10.2-22.777-22.781 0-12.582 10.2-22.781 22.777-22.781 12.582 0 22.782 10.199 22.782 22.78zm0 0"/></g><g clip-path="url(#i)" id="B"><path fill="#fff" d="M107.586 115.293v14a60.121 60.121 0 0012-12v-2zm0 0"/></g><g clip-path="url(#j)" id="S"><path fill="#fff" d="M113.586 71.293h6v2h-6zm0 0"/></g><g clip-path="url(#k)" id="ac"><path stroke="#fff" stroke-linejoin="round" stroke-width="1.98" fill="none" d="M88.879 66.254c0 18.808-15.246 34.058-34.059 34.058-18.808 0-34.058-15.25-34.058-34.058 0-18.813 15.25-34.059 34.058-34.059 18.813 0 34.059 15.246 34.059 34.059zm0 0"/></g><g clip-path="url(#l)" id="M"><path fill="#fff" d="M47.586 67.293h4v2h-4zm0 0"/></g><g clip-path="url(#m)" id="I"><path fill="#fff" d="M33.586 77.293h4v2h-4zm0 0"/></g><g clip-path="url(#n)" id="ae"><path fill="#12121c" fill-rule="evenodd" d="M55.176 70.605L17.512 107.16a59.63 59.63 0 006.293 10.336l5.379.176-1.914 3.973a60.081 60.081 0 009.851 8.722l3.3-7.43 15.067 16.094c.13.031.258.067.387.098zm0 0"/></g><g clip-path="url(#o)" id="g"><path fill="url(#p)" d="M128 80.64V128H0V80.64zm0 0"/><path d="M13.309 80.64L60.664 128H81.88L34.52 80.64zm42.421 0L103.094 128h21.215L76.945 80.64zm42.43 0L128 110.48V89.27l-8.629-8.63zM0 88.548v21.215L18.238 128h21.215zm0 0"/></g><g clip-path="url(#q)" id="U"><path fill="#fff" d="M101.586 45.148h4v2h-4zm0 0"/></g><g filter="url(#a)" clip-path="url(#r)" id="b"><use xlink:href="#s"/></g><g clip-path="url(#t)" id="D"><path d="M71.586 21.293a60.068 60.068 0 00-24.477 5.219l8.477 6.781v8l8 8h4v-4l6-6v-4l4-4v-9.7a60.687 60.687 0 00-6-.3zm-40.79 16a59.996 59.996 0 00-19.085 40.113l19.875 17.887v-6l-4-4 6-6h4l4 4 .125-8.402 5.875-5.598h4v-4l4-4v-6l-4.273-3.875-9.727-.125v8h-4l-4-4v-4l6-6h6v-4l-4-4zm70.79 2l-6 6v4h6v-2.145h4v4.27l-2 1.875h-10v4h-4v6h-8v8h10v-4h8v2l4 4h2v-2l-2-2v-2h4l6 6h6v2l-2 2h-4l16.652 16.652a60.002 60.002 0 00-15.805-54.652zm12 38h-12l-2-2h-14l-8 8v8l8 8h6l4 4v2l2 2v12l10 10a60.02 60.02 0 0012-12v-14l4-4v-8l-10-10zm-2-12h4l6 6h-4zm-74 28l-4 4v10l8.125 8.144-.086 17.836a59.466 59.466 0 007.96 3.84v-3.82l6-6v-4l6-6v-4l4-4v-8l-4-4h-8l-4-4zm0 0"/></g><g clip-path="url(#d)" id="Q"><path fill="#fff" d="M103.586 71.293h2v2h-2zm0 0"/></g><g clip-path="url(#v)" id="W"><path fill="#fff" d="M63.586 47.293h4v2h-4zm0 0"/></g><g clip-path="url(#w)" id="aj"><path fill="#2e3436" d="M169.336 19.172v3.531l.883.883.34.344.543-.543v-.684h.683l.2-.2v-.683l.882-.883h.684l.199-.199v-.683l-.883-.883zm8.113 0v1.765h1.598l.91 1.325v.441l.856.883v-4.414zm3.363 4.414l-.91.05-.855-.933v-.219h-1.078l-.442-.664h-.078v2.883l.301.43v1.762L179.047 28l.883-.883V24.47zm0 0"/></g><g clip-path="url(#x)" id="G"><path fill="#fff" d="M85.586 97.293h6v2h-6zm0 0"/></g><g clip-path="url(#y)" id="s"><path fill="#2967b4" fill-rule="evenodd" d="M39.11 8.512v2l4.011-.16.09-1.997zm0 0"/><path fill="#164e93" fill-rule="evenodd" d="M3.71 59.41v2l4.013-.16.09-1.996zm0 0"/><path fill="url(#z)" d="M123.586 65.293c0 33.137-26.863 60-60 60s-60-26.863-60-60 26.863-60 60-60 60 26.863 60 60zm0 0"/><use mask="url(#A)" transform="translate(-8 -16)" xlink:href="#B"/><use mask="url(#C)" transform="translate(-8 -16)" xlink:href="#D"/><path fill="#144788" fill-rule="evenodd" d="M105.586 59.293v2h4v-2zm0 0"/><path fill="url(#E)" d="M63.586 3.293a60.068 60.068 0 00-24.477 5.219l8.477 6.781v8l8 8h4v-4l6-6v-4l4-4v-9.7a60.687 60.687 0 00-6-.3zm-40.79 16A59.996 59.996 0 003.712 59.406l19.875 17.887v-6l-4-4 6-6h4l4 4 .125-8.402 5.875-5.598h4v-4l4-4v-6l-4.273-3.875-9.727-.125v8h-4l-4-4v-4l6-6h6v-4l-4-4zm70.79 2l-6 6v4h6v-2.145h4v4.27l-2 1.875h-10v4h-4v6h-8v8h10v-4h8v2l4 4h2v-2l-2-2v-2h4l6 6h6v2l-2 2h-4l16.652 16.652a60.002 60.002 0 00-15.805-54.652zm12 38h-12l-2-2h-14l-8 8v8l8 8h6l4 4v2l2 2v12l10 10a60.02 60.02 0 0012-12v-14l4-4v-8l-10-10zm-2-12h4l6 6h-4zm-74 28l-4 4v10l8.125 8.144-.086 17.836a59.466 59.466 0 007.96 3.84v-3.82l6-6v-4l6-6v-4l4-4v-8l-4-4h-8l-4-4zm0 0"/><use mask="url(#F)" transform="translate(-8 -16)" xlink:href="#G"/><use mask="url(#H)" transform="translate(-8 -16)" xlink:href="#I"/><use mask="url(#J)" transform="translate(-8 -16)" xlink:href="#K"/><use mask="url(#L)" transform="translate(-8 -16)" xlink:href="#M"/><use mask="url(#N)" transform="translate(-8 -16)" xlink:href="#O"/><use mask="url(#P)" transform="translate(-8 -16)" xlink:href="#Q"/><use mask="url(#R)" transform="translate(-8 -16)" xlink:href="#S"/><use mask="url(#T)" transform="translate(-8 -16)" xlink:href="#U"/><use mask="url(#V)" transform="translate(-8 -16)" xlink:href="#W"/><use mask="url(#X)" transform="translate(-8 -16)" xlink:href="#Y"/><use mask="url(#Z)" transform="translate(-8 -16)" xlink:href="#aa"/><use mask="url(#ab)" transform="translate(-8 -16)" xlink:href="#ac"/><use mask="url(#ad)" transform="translate(-8 -16)" xlink:href="#ae"/><path fill="url(#af)" fill-rule="evenodd" d="M47.176 50.605L-.59 96.97l21.774.703-9.13 18.965c-2.812 8.43 9.833 11.59 11.942 5.27l8.43-18.97 15.453 16.508zm0 0"/><path fill="#e4e6e8" fill-rule="evenodd" d="M47.176 50.605l-.246.239-31.16 73.781c3.148 1.277 7.12.586 8.222-2.719l8.43-18.969 15.457 16.508zm0 0"/><g clip-path="url(#ag)"><g clip-path="url(#ah)"><use mask="url(#ai)" transform="translate(-8 -16)" xlink:href="#aj"/></g></g></g><g clip-path="url(#ak)" id="K"><path fill="#fff" d="M39.586 43.293h6v2h-6zm0 0"/></g><radialGradient gradientTransform="matrix(7.42904 0 0 7.1212 -88.327 -114.956)" r="9.125" fy="24.149" fx="17.814" cy="24.149" cx="17.814" gradientUnits="userSpaceOnUse" id="af"><stop stop-color="#fff" offset="0"/><stop stop-color="#e4e4e4" offset="1"/></radialGradient><radialGradient gradientTransform="matrix(.29041 -.00079 .00067 .24464 49.921 -16.608)" r="224" fy="236.83" fx="46.511" cy="236.83" cx="46.511" gradientUnits="userSpaceOnUse" id="E"><stop stop-color="#cee2f8" offset="0"/><stop stop-color="#98c1f1" offset=".552"/><stop stop-color="#62a0ea" offset="1"/></radialGradient><radialGradient gradientTransform="matrix(.29048 0 0 .29907 -10.777 55.175)" r="224" fy="-46.416" fx="256" cy="-46.416" cx="256" gradientUnits="userSpaceOnUse" id="z"><stop stop-color="#62a0ea" offset="0"/><stop stop-color="#3584e4" offset=".552"/><stop stop-color="#1a5fb4" offset="1"/></radialGradient><radialGradient gradientTransform="matrix(.29041 -.00079 .00067 .24464 49.921 -16.608)" r="224" fy="236.83" fx="46.511" cy="236.83" cx="46.511" gradientUnits="userSpaceOnUse" id="ao"><stop stop-color="#cee2f8" offset="0"/><stop stop-color="#98c1f1" offset=".552"/><stop stop-color="#62a0ea" offset="1"/></radialGradient><radialGradient gradientTransform="matrix(.29048 0 0 .29907 -10.777 55.175)" r="224" fy="-46.416" fx="256" cy="-46.416" cx="256" gradientUnits="userSpaceOnUse" id="al"><stop stop-color="#62a0ea" offset="0"/><stop stop-color="#3584e4" offset=".552"/><stop stop-color="#1a5fb4" offset="1"/></radialGradient><radialGradient id="aH" gradientUnits="userSpaceOnUse" cx="17.814" cy="24.149" fx="17.814" fy="24.149" r="9.125" gradientTransform="matrix(7.42904 0 0 7.1212 -88.327 -114.956)"><stop offset="0" stop-color="#fff"/><stop offset="1" stop-color="#e4e4e4"/></radialGradient><linearGradient gradientTransform="matrix(0 .37 -.98462 0 295.385 -30.36)" y2="235" x2="428" y1="235" x1="300" gradientUnits="userSpaceOnUse" id="p"><stop stop-color="#f9f06b" offset="0"/><stop stop-color="#f5c211" offset="1"/></linearGradient><filter height="100%" width="100%" y="0%" x="0%" filterUnits="objectBoundingBox" id="a"><feColorMatrix values="0 0 0 0 1 0 0 0 0 1 0 0 0 0 1 0 0 0 1 0" in="SourceGraphic"/></filter></defs><path fill="#2967b4" fill-rule="evenodd" d="M39.11 8.512v2l4.011-.16.09-1.997zm0 0"/><path fill="#164e93" fill-rule="evenodd" d="M3.71 59.41v2l4.013-.16.09-1.996zm0 0"/><path fill="url(#al)" d="M123.586 65.293c0 33.137-26.863 60-60 60s-60-26.863-60-60 26.863-60 60-60 60 26.863 60 60zm0 0"/><use mask="url(#am)" transform="translate(-8 -16)" xlink:href="#B"/><use mask="url(#an)" transform="translate(-8 -16)" xlink:href="#D"/><path fill="#144788" fill-rule="evenodd" d="M105.586 59.293v2h4v-2zm0 0"/><path fill="url(#ao)" d="M63.586 3.293a60.068 60.068 0 00-24.477 5.219l8.477 6.781v8l8 8h4v-4l6-6v-4l4-4v-9.7a60.687 60.687 0 00-6-.3zm-40.79 16A59.996 59.996 0 003.712 59.406l19.875 17.887v-6l-4-4 6-6h4l4 4 .125-8.402 5.875-5.598h4v-4l4-4v-6l-4.273-3.875-9.727-.125v8h-4l-4-4v-4l6-6h6v-4l-4-4zm70.79 2l-6 6v4h6v-2.145h4v4.27l-2 1.875h-10v4h-4v6h-8v8h10v-4h8v2l4 4h2v-2l-2-2v-2h4l6 6h6v2l-2 2h-4l16.652 16.652a60.002 60.002 0 00-15.805-54.652zm12 38h-12l-2-2h-14l-8 8v8l8 8h6l4 4v2l2 2v12l10 10a60.02 60.02 0 0012-12v-14l4-4v-8l-10-10zm-2-12h4l6 6h-4zm-74 28l-4 4v10l8.125 8.144-.086 17.836a59.466 59.466 0 007.96 3.84v-3.82l6-6v-4l6-6v-4l4-4v-8l-4-4h-8l-4-4zm0 0"/><use mask="url(#ap)" transform="translate(-8 -16)" xlink:href="#G"/><use mask="url(#aq)" transform="translate(-8 -16)" xlink:href="#I"/><use mask="url(#ar)" transform="translate(-8 -16)" xlink:href="#K"/><use mask="url(#as)" transform="translate(-8 -16)" xlink:href="#M"/><use mask="url(#at)" transform="translate(-8 -16)" xlink:href="#O"/><use mask="url(#au)" transform="translate(-8 -16)" xlink:href="#Q"/><use mask="url(#av)" transform="translate(-8 -16)" xlink:href="#S"/><use mask="url(#aw)" transform="translate(-8 -16)" xlink:href="#U"/><use mask="url(#ax)" transform="translate(-8 -16)" xlink:href="#W"/><use mask="url(#ay)" transform="translate(-8 -16)" xlink:href="#Y"/><use mask="url(#az)" transform="translate(-8 -16)" xlink:href="#aa"/><use mask="url(#aA)" transform="translate(-8 -16)" xlink:href="#ac"/><use mask="url(#aB)" transform="translate(-8 -16)" xlink:href="#ae"/><g clip-path="url(#aC)"><g clip-path="url(#aD)"><use mask="url(#aE)" transform="translate(-8 -16)" xlink:href="#aj"/></g></g><use mask="url(#aF)" xlink:href="#aG"/><path d="M47.176 50.605L-.59 96.97l21.774.703-9.13 18.965c-2.812 8.43 9.833 11.59 11.942 5.27l8.43-18.97 15.453 16.508zm0 0" fill-rule="evenodd" fill="url(#aH)"/><path d="M47.176 50.605l-.246.239-31.16 73.781c3.148 1.277 7.12.586 8.222-2.719l8.43-18.969 15.457 16.508zm0 0" fill-rule="evenodd" fill="#e4e6e8"/></svg>